<svg width="271" height="269" viewBox="0 0 271 269" fill="none" xmlns="http://www.w3.org/2000/svg">
<path fill-rule="evenodd" clip-rule="evenodd" d="M185.27 86.2139C278.254 26.0961 311.049 164.983 201.741 153.858C299.493 204.379 196.283 302.461 151.341 201.887C156.945 312.77 20.9379 271.967 85.3043 182.517C-7.67957 242.635 -40.7216 104.587 68.832 114.873C-30.0019 64.9461 73.2094 -33.1368 119.233 66.844C112.547 -43.4463 249.636 -3.23563 185.27 86.2139ZM139.294 119.155C147.654 121.607 153.21 130.52 150.751 138.902C148.293 147.284 138.557 152.621 130.197 150.169C121.838 147.718 117.363 138.212 119.822 129.83C122.281 121.448 130.935 116.704 139.294 119.155Z" fill="#387BFF"/>
</svg>
