<svg width="379" height="144" viewBox="0 0 379 144" fill="none" xmlns="http://www.w3.org/2000/svg">
<g filter="url(#filter0_d_1_1084)">
<rect x="19.9503" y="8.15994" width="355.764" height="65.0586" rx="8.23527" transform="rotate(10.0727 19.9503 8.15994)" fill="#E52D55" shape-rendering="crispEdges"/>
<rect x="16.6163" y="3.38561" width="363.999" height="73.2939" rx="12.3529" transform="rotate(10.0727 16.6163 3.38561)" stroke="#FFC7D8" stroke-width="8.23527" shape-rendering="crispEdges"/>
<path d="M66.0579 46.8099L66.502 44.3099L61.5019 43.4217L62.3901 38.4215L59.89 37.9774L59.0018 42.9775L54.0017 42.0893L54.8899 37.0892L52.3898 36.6451L51.5016 41.6452L46.5014 40.757L46.0573 43.2571L51.0575 44.1453L50.1693 49.1455L45.1691 48.2573L44.725 50.7573L49.7252 51.6455L48.837 56.6457L51.337 57.0898L52.2253 52.0896L57.2254 52.9778L56.3372 57.978L58.8373 58.4221L59.7255 53.4219L64.7256 54.3101L65.1697 51.8101L60.1696 50.9219L61.0578 45.9217L66.0579 46.8099ZM57.6695 50.4778L52.6694 49.5896L53.5576 44.5894L58.5577 45.4776L57.6695 50.4778Z" fill="#FFB8DA"/>
<path d="M87.847 61.8924L90.9021 44.6939L93.9902 45.2425L92.6948 52.5352L100.7 53.9573L101.996 46.6645L105.108 47.2173L102.052 64.4158L98.9406 63.863L100.24 56.5465L92.2348 55.1245L90.9352 62.441L87.847 61.8924ZM110.772 66.2342C106.888 65.5443 104.96 62.5309 105.678 58.4926C106.387 54.5018 109.291 52.2241 112.973 52.8782C116.132 53.4394 118.511 55.9082 117.708 60.4335L117.539 61.3837L108.536 59.7844C108.193 61.9902 109.255 63.5267 111.217 63.8629C112.545 64.1111 113.538 63.6992 114.067 62.9968L117.036 63.5243C116.093 65.6602 113.765 66.7659 110.772 66.2342ZM108.915 57.7199L115.008 58.8022C115.308 57.0422 114.348 55.5485 112.602 55.2383C110.785 54.9155 109.313 56.0998 108.915 57.7199ZM124.573 68.6859C120.689 67.9959 118.762 64.9826 119.479 60.9442C120.188 56.9534 123.092 54.6758 126.774 55.3298C129.934 55.8911 132.313 58.3599 131.509 62.8852L131.34 63.8354L122.337 62.2361C121.994 64.4419 123.057 65.9783 125.019 66.3146C126.347 66.5628 127.339 66.1509 127.868 65.4485L130.838 65.976C129.895 68.1119 127.566 69.2175 124.573 68.6859ZM122.716 60.1715L128.809 61.2539C129.11 59.4939 128.15 58.0002 126.404 57.69C124.587 57.3672 123.114 58.5514 122.716 60.1715ZM147.422 62.9674C147.405 61.9597 146.71 61.1867 145.425 60.9708C144.132 60.7289 143.066 61.2134 142.922 62.0944C142.792 62.7574 143.238 63.3512 144.489 63.8921L146.594 64.7317C148.934 65.6987 149.922 67.038 149.604 68.893C149.162 71.3139 146.737 72.6229 143.363 72.0237C140.085 71.4413 138.411 69.6246 138.529 67.0972L141.617 67.6457C141.599 68.782 142.357 69.4802 143.773 69.7194C145.231 69.9908 146.287 69.5657 146.47 68.6058C146.591 67.8554 146.093 67.2769 144.859 66.7759L142.873 65.9574C140.56 65.0442 139.536 63.5637 139.875 61.7248C140.287 59.3353 142.631 58.1465 145.778 58.7056C148.854 59.2521 150.487 61.0981 150.297 63.478L147.422 62.9674ZM156.809 74.412C153.043 73.7432 151.107 70.6425 151.814 66.6635C152.527 62.6489 155.411 60.4167 159.176 61.0855C162.953 61.7565 164.891 64.8453 164.166 68.8578C163.471 72.8388 160.586 75.083 156.809 74.412ZM154.882 67.1841C154.463 69.5477 155.16 71.6198 157.263 71.9932C159.329 72.3604 160.698 70.6554 161.106 68.2897C161.538 65.9282 160.842 63.8442 158.773 63.489C156.673 63.1037 155.302 64.8205 154.882 67.1841ZM170.967 76.927C167.201 76.2581 165.265 73.1574 165.972 69.1785C166.685 65.1639 169.569 62.9317 173.334 63.6005C177.111 64.2714 179.049 67.3603 178.324 71.3727C177.629 75.3538 174.744 77.5979 170.967 76.927ZM169.04 69.6991C168.62 72.0627 169.318 74.1347 171.421 74.5082C173.487 74.8753 174.856 73.1704 175.264 70.8046C175.696 68.4431 175 66.3592 172.931 66.0039C170.831 65.6186 169.46 67.3355 169.04 69.6991ZM185.456 79.2313L188.511 62.0327L191.599 62.5813L189.008 77.1668L196.61 78.5171L196.146 81.1301L185.456 79.2313ZM198.525 77.8037C199.04 74.9056 201.601 74.4906 204.016 74.7603C204.931 74.8493 206.787 75.0932 207.361 75.1707L207.533 74.1353C207.761 72.8525 207.072 71.9705 205.564 71.7026C204.21 71.4621 203.269 71.932 202.866 72.8163L199.945 72.2972C200.549 70.1379 202.814 68.8371 206.044 69.411C208.491 69.8457 211.139 71.3574 210.529 74.79L208.997 83.413L206.099 82.8982L206.415 81.1166L206.32 81.0997C205.556 82.0912 204.188 82.8283 202.157 82.4675C199.698 82.0307 198.072 80.3573 198.525 77.8037ZM201.451 78.2989C201.253 79.4154 202.066 80.148 203.337 80.3738C205.178 80.7008 206.569 79.6982 206.827 78.2491L207.003 77.1899C206.452 77.1166 204.746 76.9239 204.132 76.8638C202.674 76.7273 201.652 77.1706 201.451 78.2989ZM212.341 89.0059C211.737 88.8864 211.169 88.7733 210.786 88.6561L211.216 86.2331C211.578 86.3342 212.089 86.4249 212.49 86.5085C213.229 86.6274 213.855 86.6896 214.624 85.3928L215.008 84.7503L212.642 70.7546L215.849 71.3243L217.112 81.5955L217.255 81.6208L221.978 72.413L225.185 72.9826L217.437 86.5295C216.335 88.4534 214.766 89.4244 212.341 89.0059ZM230.021 87.4172C226.137 86.7273 224.21 83.7139 224.927 79.6756C225.636 75.6847 228.54 73.4071 232.222 74.0612C235.382 74.6224 237.761 77.0912 236.957 81.6165L236.788 82.5667L227.785 80.9674C227.442 83.1732 228.505 84.7097 230.467 85.0459C231.795 85.2941 232.787 84.8822 233.316 84.1798L236.286 84.7073C235.343 86.8432 233.014 87.9489 230.021 87.4172ZM228.164 78.9028L234.257 79.9852C234.558 78.2252 233.598 76.7315 231.852 76.4213C230.035 76.0985 228.562 77.2827 228.164 78.9028ZM238.144 88.5906L240.436 75.6917L243.381 76.2149L243.001 78.3529L243.144 78.3782C243.871 76.9758 245.256 76.3519 246.741 76.6157C247.073 76.6747 247.542 76.7948 247.821 76.881L247.323 79.6841C247.066 79.5406 246.452 79.3456 245.955 79.2451C244.266 78.9574 242.824 79.9019 242.535 81.5292L241.185 89.1307L238.144 88.5906ZM256.267 82.3022C256.25 81.2945 255.555 80.5215 254.27 80.3055C252.977 80.0637 251.911 80.5481 251.767 81.4292C251.637 82.0922 252.082 82.686 253.334 83.2269L255.439 84.0664C257.779 85.0335 258.767 86.3728 258.449 88.2278C258.007 90.6487 255.581 91.9576 252.208 91.3584C248.93 90.7761 247.256 88.9594 247.374 86.4319L250.462 86.9805C250.444 88.1167 251.202 88.815 252.618 89.0542C254.076 89.3256 255.132 88.9005 255.315 87.9405C255.436 87.1901 254.938 86.6117 253.704 86.1106L251.718 85.2922C249.405 84.379 248.381 82.8984 248.72 81.0595C249.132 78.6701 251.476 77.4812 254.623 78.0404C257.699 78.5868 259.332 80.4328 259.142 82.8128L256.267 82.3022ZM261.913 93.0088C260.891 92.8273 260.196 91.8461 260.389 90.8268C260.555 89.827 261.543 89.1572 262.567 89.3268C263.551 89.5138 264.248 90.4831 264.071 91.4808C263.89 92.5023 262.899 93.1839 261.913 93.0088Z" fill="white"/>
<path d="M300.467 87.9963L300.815 86.0368C301.302 83.2934 299.604 80.7683 296.955 80.2978C294.307 79.8273 291.843 81.613 291.355 84.3564L291.007 86.3159C289.399 86.0302 287.943 87.0854 287.647 88.751L286.429 95.6093C286.133 97.2749 287.137 98.7671 288.745 99.0527L298.204 100.733C299.813 101.019 301.269 99.9635 301.565 98.298L302.783 91.4397C303.079 89.7741 302.075 88.2819 300.467 87.9963ZM293.247 84.6924C293.543 83.0269 294.999 81.9716 296.607 82.2573C298.215 82.5429 299.219 84.0351 298.923 85.7007L298.575 87.6602L292.899 86.652L293.247 84.6924Z" fill="#FFB8DA"/>
<path d="M318.131 91.4474C318.112 91.3156 318.119 91.1813 318.152 91.0523C318.186 90.9233 318.245 90.8024 318.325 90.6966C318.406 90.5908 318.508 90.5023 318.624 90.4364C318.739 90.3706 318.867 90.3286 319 90.3131C319.132 90.2975 319.266 90.3087 319.394 90.3459C319.522 90.3832 319.641 90.4457 319.744 90.5298C319.847 90.614 319.933 90.718 319.995 90.8357C320.057 90.9534 320.096 91.0825 320.107 91.2152C320.935 98.4228 330.631 100.146 333.892 93.6679C333.95 93.551 334.031 93.4468 334.13 93.3612C334.229 93.2757 334.344 93.2104 334.468 93.1692C334.592 93.128 334.723 93.1116 334.853 93.121C334.984 93.1304 335.111 93.1654 335.228 93.224C335.345 93.2826 335.449 93.3636 335.534 93.4625C335.62 93.5613 335.685 93.6761 335.726 93.8001C335.768 93.9242 335.784 94.0552 335.775 94.1856C335.765 94.316 335.73 94.4433 335.672 94.5601C335.098 95.7228 334.29 96.755 333.301 97.5924L334.328 99.0645C334.473 99.281 334.528 99.546 334.48 99.8025C334.432 100.059 334.286 100.286 334.072 100.436C333.858 100.585 333.594 100.645 333.337 100.601C333.079 100.558 332.849 100.415 332.696 100.204L331.64 98.6912C330.854 99.0909 330.014 99.3738 329.146 99.5307L329.263 100.901C329.278 101.033 329.267 101.167 329.229 101.294C329.192 101.422 329.129 101.54 329.045 101.643C328.961 101.746 328.857 101.831 328.739 101.893C328.622 101.955 328.493 101.993 328.36 102.005C328.228 102.016 328.095 102.001 327.968 101.96C327.842 101.919 327.725 101.853 327.624 101.766C327.524 101.679 327.441 101.573 327.382 101.454C327.324 101.335 327.289 101.205 327.281 101.072L327.161 99.6794C326.209 99.6517 325.26 99.4832 324.357 99.1813L323.764 100.447C323.711 100.569 323.634 100.679 323.538 100.771C323.441 100.863 323.328 100.934 323.203 100.981C323.079 101.028 322.946 101.049 322.814 101.044C322.681 101.039 322.55 101.008 322.43 100.951C322.309 100.895 322.202 100.815 322.113 100.716C322.024 100.617 321.955 100.502 321.912 100.376C321.868 100.251 321.85 100.118 321.859 99.9849C321.867 99.8523 321.903 99.7227 321.962 99.6039L322.544 98.358C321.784 97.9115 321.092 97.3563 320.492 96.71L318.981 97.7674C318.764 97.9187 318.497 97.9779 318.236 97.9319C317.976 97.8859 317.745 97.7385 317.594 97.5221C317.443 97.3057 317.384 97.0381 317.43 96.778C317.476 96.518 317.623 96.2869 317.839 96.1356L319.31 95.1083C318.705 94.0548 318.29 92.8309 318.129 91.448L318.131 91.4474Z" fill="#FFB8DA"/>
</g>
<defs>
<filter id="filter0_d_1_1084" x="-2.08616e-05" y="-3.8743e-07" width="378.802" height="143.422" filterUnits="userSpaceOnUse" color-interpolation-filters="sRGB">
<feFlood flood-opacity="0" result="BackgroundImageFix"/>
<feColorMatrix in="SourceAlpha" type="matrix" values="0 0 0 0 0 0 0 0 0 0 0 0 0 0 0 0 0 0 127 0" result="hardAlpha"/>
<feOffset dy="0.411764"/>
<feGaussianBlur stdDeviation="0.823527"/>
<feComposite in2="hardAlpha" operator="out"/>
<feColorMatrix type="matrix" values="0 0 0 0 0 0 0 0 0 0 0 0 0 0 0 0 0 0 0.25 0"/>
<feBlend mode="normal" in2="BackgroundImageFix" result="effect1_dropShadow_1_1084"/>
<feBlend mode="normal" in="SourceGraphic" in2="effect1_dropShadow_1_1084" result="shape"/>
</filter>
</defs>
</svg>
