<svg width="154" height="154" viewBox="0 0 154 154" fill="none" xmlns="http://www.w3.org/2000/svg">
<g filter="url(#filter0_d_49_114)">
<path d="M113.431 97.8284L130.133 96.0341L118.351 84.0377L133.41 76.6512L118.239 69.3786L129.835 57.2919L113.109 55.6267L119.846 40.2949L103.576 44.4352L104.646 27.7081L90.7992 37.156L86.0647 21.049L76.3141 34.6634L66.3495 21.1223L61.8652 37.261L47.8768 27.9205L49.2012 44.6409L32.8703 40.6207L39.8435 55.9038L23.1428 57.6946L34.9283 69.693L19.8696 77.0795L35.0373 84.35L23.4408 96.4367L40.1702 98.104L33.4306 113.434L49.7004 109.294L48.6336 126.023L62.477 116.573L67.2114 132.68L76.9656 119.067L86.9266 132.606L91.4109 116.468L105.403 125.81L104.079 109.09L120.406 113.108L113.431 97.8284Z" fill="white"/>
<path d="M107.121 23.3638C108.782 24.3101 109.758 26.1203 109.636 28.0275L109.004 37.8932L118.612 35.4493C120.465 34.9779 122.425 35.6037 123.66 37.062C124.896 38.5203 125.192 40.5559 124.423 42.306L120.456 51.3324L130.331 52.3162C132.235 52.5057 133.864 53.7657 134.526 55.5609C135.189 57.3563 134.768 59.3723 133.443 60.7532L126.629 67.8551L135.572 72.1421C137.299 72.9702 138.402 74.713 138.41 76.6287C138.419 78.5443 137.332 80.2961 135.612 81.1397L126.771 85.4755L133.7 92.5306C135.044 93.8984 135.487 95.914 134.841 97.719C134.195 99.524 132.574 100.801 130.668 101.006L120.858 102.059L124.955 111.032C125.751 112.776 125.479 114.822 124.256 116.298C123.033 117.774 121.072 118.421 119.211 117.963L109.609 115.599L110.387 125.415C110.538 127.325 109.585 129.154 107.933 130.123C106.281 131.093 104.22 131.032 102.626 129.968L94.379 124.46L91.7439 133.944C91.2316 135.788 89.712 137.178 87.8298 137.524C85.9476 137.87 84.0331 137.11 82.8991 135.569L77.0185 127.576L71.2759 135.592C70.1625 137.145 68.2605 137.929 66.3759 137.609C64.4912 137.29 62.9531 135.924 62.414 134.09L59.6175 124.577L51.4523 130.152C49.8739 131.23 47.819 131.313 46.1585 130.367C44.4981 129.422 43.5223 127.612 43.6438 125.705L44.2731 115.833L34.6633 118.28C32.8107 118.751 30.8514 118.125 29.6157 116.666C28.3798 115.207 28.0838 113.171 28.8532 111.421L32.821 102.395L22.9456 101.412C21.0414 101.222 19.4119 99.9625 18.7497 98.1671C18.0874 96.3718 18.5083 94.3556 19.8331 92.9748L26.6467 85.8725L17.7087 81.5884C15.9813 80.7604 14.8784 79.0181 14.8696 77.1026C14.8609 75.1869 15.9475 73.4339 17.6674 72.5902L26.5063 68.2535L19.5754 61.1983C18.232 59.8304 17.7889 57.8142 18.4351 56.009C19.0814 54.204 20.7038 52.9275 22.6102 52.7231L32.416 51.6706L28.3215 42.6965C27.5257 40.9524 27.7969 38.9061 29.0202 37.43C30.2435 35.9539 32.2035 35.3076 34.0651 35.7657L43.6693 38.1287L42.8924 28.3147C42.7413 26.4052 43.6947 24.5772 45.3469 23.608C46.9993 22.6386 49.0608 22.6983 50.654 23.7621L58.8972 29.2655L61.5322 19.7837C62.0445 17.9401 63.5639 16.5507 65.4458 16.2049C67.3279 15.8591 69.2429 16.6178 70.377 18.159L76.259 26.1519L81.9997 18.1372C83.1129 16.5831 85.015 15.8003 86.8998 16.1196C88.7847 16.4389 90.3225 17.8048 90.8616 19.6389L93.6576 29.1522L101.828 23.5782L102.13 23.3882C103.662 22.495 105.565 22.4769 107.121 23.3638Z" stroke="white" stroke-width="10" stroke-linejoin="round"/>
</g>
<path d="M99.5612 88.7497C96.7551 93.1632 93.5966 96.105 90.0766 97.5745C86.5566 99.0441 83.0655 98.7926 79.5997 96.818C76.1339 94.8435 74.887 92.2813 75.368 88.8519C73.6503 89.7012 71.9812 90.1212 70.357 90.1098C68.7328 90.0984 67.2474 89.7091 65.8972 88.9399C63.2328 87.4219 61.8351 85.1832 61.7004 82.2218C61.562 79.2582 62.699 76.0455 65.1057 72.585C67.0832 69.7939 69.3302 67.5372 71.8408 65.8163C74.3551 64.0975 76.8671 63.0961 79.3861 62.8128C81.9051 62.5295 84.1674 62.9568 86.1711 64.0984C87.7018 64.9705 88.9472 65.9322 89.9071 66.9837C90.867 68.0352 91.7992 69.6136 92.7023 71.7133L82.5454 86.2338C80.1514 89.6301 80.1674 92.0194 82.5934 93.4016C84.4527 94.4609 86.547 94.3354 88.8742 93.0289C91.2014 91.7224 93.3209 89.5215 95.2289 86.4243C99.3559 79.9024 100.978 74.0337 100.095 68.818C99.2122 63.6024 95.8537 59.3327 90.0196 56.0088C86.4455 53.9725 82.768 53.0579 78.9926 53.2633C75.2173 53.4687 71.5563 54.7913 68.0169 57.2351C64.4738 59.6769 61.3974 63.0034 58.7805 67.2105C56.0665 71.4622 54.4458 75.5324 53.9092 79.4204C53.3705 83.3121 53.941 86.8265 55.6166 89.9708C57.2921 93.1152 60.0163 95.762 63.7926 97.9135C65.3233 98.7856 67.0307 99.5156 68.9054 100.103C70.7801 100.69 72.4774 101.01 73.9956 101.056L72.9101 105.379C71.3846 105.471 69.549 105.201 67.407 104.571C65.2649 103.941 63.239 103.082 61.322 101.99C56.6901 99.3508 53.2721 96.1087 51.0625 92.265C48.8529 88.4213 47.9768 84.1759 48.425 79.5281C48.8927 74.7202 50.7451 69.7062 53.9898 64.4811C57.0437 59.6328 60.7099 55.7998 64.9956 52.9861C69.2814 50.1725 73.8015 48.6682 78.5673 48.4701C83.3274 48.2736 87.954 49.4529 92.4416 52.0096C96.9291 54.5662 100.322 57.818 102.465 61.6709C104.607 65.5238 105.425 69.779 104.924 74.4349C104.42 79.0888 102.634 83.8599 99.5576 88.7477L99.5612 88.7497ZM70.469 75.6358C68.8241 77.9689 67.9755 79.9704 67.9217 81.6344C67.868 83.2984 68.5794 84.551 70.0559 85.3923C71.0415 85.9538 72.2151 86.0511 73.5837 85.6884C74.9488 85.3237 76.3357 84.5429 77.7423 83.3498L86.6227 70.6249C85.9059 69.7595 85.1233 69.0852 84.264 68.5956C82.2387 67.4417 80.0483 67.4505 77.6892 68.6199C75.3301 69.7893 72.9229 72.126 70.469 75.6358Z" fill="white"/>
<g filter="url(#filter1_d_49_114)">
<path d="M109.152 94.5139L123.752 92.9454L113.453 82.4591L126.617 76.0024L113.355 69.6453L123.492 59.0801L108.871 57.6245L114.759 44.2226L100.538 47.8417L101.473 33.2203L89.3694 41.4788L85.2309 27.3994L76.7078 39.3L67.9975 27.4635L64.0777 41.5707L51.8501 33.4059L53.0078 48.0216L38.7327 44.5074L44.828 57.8667L30.2297 59.4321L40.5316 69.9201L27.3684 76.3768L40.6269 82.7321L30.4902 93.2973L45.1137 94.7547L39.2224 108.155L53.4442 104.536L52.5117 119.159L64.6124 110.899L68.7509 124.978L77.2772 113.079L85.9843 124.914L89.9041 110.807L102.135 118.973L100.977 104.358L115.249 107.87L109.152 94.5139Z" fill="#60D1FF"/>
</g>
<g filter="url(#filter2_d_49_114)">
<path d="M104.444 28.0075C106.437 29.1431 107.608 31.3154 107.461 33.6039L107.052 39.9919L113.28 38.408C115.503 37.8423 117.853 38.5938 119.336 40.3436C120.819 42.0936 121.175 44.5359 120.253 46.636L117.688 52.4727L124.086 53.1098C126.371 53.3373 128.326 54.8492 129.121 57.0037C129.916 59.1579 129.411 61.577 127.822 63.234L123.423 67.8178L129.21 70.592C131.283 71.5858 132.606 73.6767 132.617 75.9755C132.627 78.2743 131.323 80.3772 129.259 81.3895L123.558 84.1851L128.033 88.7417C129.645 90.383 130.176 92.801 129.401 94.9668C128.626 97.1329 126.68 98.6651 124.393 98.9109L118.065 99.59L120.707 105.379C121.662 107.472 121.337 109.926 119.869 111.698C118.401 113.469 116.05 114.246 113.816 113.697L107.615 112.17L108.117 118.499C108.298 120.791 107.154 122.985 105.171 124.148C103.188 125.312 100.715 125.239 98.8032 123.963L93.4664 120.399L91.7656 126.52C91.1509 128.733 89.327 130.4 87.0687 130.815C84.8101 131.23 82.5119 130.319 81.151 128.47L77.3414 123.291L73.628 128.473C72.2919 130.337 70.009 131.277 67.7474 130.894C65.486 130.51 63.6413 128.87 62.9945 126.67L61.182 120.504L55.8946 124.115C54.0006 125.408 51.5352 125.507 49.5426 124.373C47.5499 123.237 46.3781 121.066 46.5239 118.777L46.9313 112.383L40.7023 113.969C38.479 114.535 36.1277 113.783 34.6448 112.033C33.1618 110.283 32.8065 107.84 33.7297 105.74L36.2945 99.905L29.8948 99.2677C27.61 99.0399 25.6554 97.5278 24.8607 95.3735C24.0662 93.2192 24.5706 90.8001 26.1602 89.1432L30.5579 84.5589L24.7753 81.7871C22.7023 80.7934 21.379 78.7024 21.3686 76.4035C21.3584 74.1048 22.6624 72.0019 24.7262 70.9895L30.4261 68.1935L25.9493 63.6367C24.3369 61.9953 23.8055 59.5758 24.581 57.4095C25.3566 55.2435 27.3023 53.7121 29.5899 53.4668L35.9158 52.7875L33.2742 46.9981C32.3192 44.905 32.645 42.4498 34.1131 40.6785C35.5813 38.9072 37.9333 38.1311 40.1672 38.6811L46.3703 40.2078L45.8687 33.8798C45.6872 31.5881 46.8312 29.3941 48.814 28.2308C50.7968 27.0676 53.2703 27.1397 55.1821 28.4163L60.5156 31.9765L62.2162 25.8567C62.8311 23.6445 64.6549 21.977 66.9132 21.562C69.1715 21.1471 71.469 22.0576 72.83 23.9069L76.6419 29.0862L80.3529 23.9062L80.4803 23.7338C81.8307 21.9831 84.0418 21.1126 86.2332 21.4838C88.495 21.8671 90.3404 23.5065 90.9874 25.7075L92.7994 31.874L98.092 28.2638L98.2712 28.1466C100.14 26.9668 102.514 26.9076 104.444 28.0075ZM89.3696 41.4785L85.2312 27.3992L76.7078 39.2999L67.9973 27.4633L64.0778 41.5711L51.8506 33.4057L53.0072 48.0217L38.7327 44.5073L44.8281 57.8662L30.2297 59.4319L40.5311 69.9202L27.3686 76.3771L40.627 82.7326L30.49 93.297L45.1137 94.7546L39.2224 108.155L53.4441 104.536L52.5119 119.159L64.6122 110.899L68.7507 124.978L77.2775 113.079L85.9846 124.914L89.9036 110.807L102.135 118.973L100.977 104.358L115.249 107.87L109.152 94.5135L123.752 92.9453L113.453 82.4593L126.617 76.002L113.354 69.6454L123.492 59.0801L108.872 57.6245L114.759 44.2223L100.538 47.8413L101.473 33.2203L89.3696 41.4785Z" fill="#139BD3"/>
</g>
<path d="M97.0285 86.5779C94.5755 90.4358 91.8147 93.0073 88.7378 94.2918C85.6609 95.5764 82.6093 95.3566 79.5797 93.6306C76.5502 91.9046 75.4602 89.665 75.8807 86.6672C74.3792 87.4096 72.9202 87.7768 71.5005 87.7668C70.0807 87.7569 68.7823 87.4166 67.602 86.7441C65.2731 85.4173 64.0513 83.4604 63.9335 80.8717C63.8126 78.2812 64.8065 75.4729 66.9102 72.448C68.6388 70.0083 70.6029 68.0356 72.7975 66.5313C74.9953 65.0289 77.1911 64.1536 79.393 63.9059C81.5949 63.6583 83.5725 64.0318 85.3239 65.0297C86.6619 65.792 87.7505 66.6327 88.5896 67.5518C89.4286 68.4709 90.2436 69.8506 91.033 71.686L82.1546 84.3787C80.0619 87.3475 80.0759 89.436 82.1966 90.6442C83.8218 91.5701 85.6525 91.4605 87.6867 90.3184C89.721 89.1764 91.5737 87.2526 93.2415 84.5452C96.849 78.8443 98.2668 73.7143 97.4951 69.1552C96.7234 64.5961 93.7877 60.8639 88.688 57.9584C85.5637 56.1785 82.3491 55.379 79.0491 55.5585C75.749 55.7381 72.5488 56.8942 69.4549 59.0304C66.3578 61.1648 63.6687 64.0725 61.3812 67.7501C59.0089 71.4666 57.5922 75.0244 57.1231 78.423C56.6522 81.8248 57.1509 84.8968 58.6156 87.6453C60.0802 90.3938 62.4614 92.7075 65.7624 94.5882C67.1004 95.3505 68.5928 95.9886 70.2316 96.5019C71.8703 97.0153 73.3539 97.2946 74.6811 97.3351L73.7322 101.114C72.3987 101.194 70.7942 100.959 68.9218 100.408C67.0494 99.8569 65.2785 99.106 63.6028 98.1513C59.5539 95.8446 56.5662 93.0106 54.6347 89.6507C52.7033 86.2909 51.9375 82.5798 52.3292 78.5172C52.7381 74.3144 54.3573 69.9316 57.1935 65.3642C59.863 61.1262 63.0677 57.7757 66.814 55.3163C70.5602 52.8568 74.5114 51.5419 78.6772 51.3687C82.8382 51.1969 86.8824 52.2278 90.805 54.4626C94.7276 56.6974 97.6938 59.5399 99.5663 62.9078C101.439 66.2757 102.154 69.9952 101.716 74.0651C101.275 78.1331 99.7145 82.3036 97.0253 86.5761L97.0285 86.5779ZM71.5983 75.1148C70.1605 77.1542 69.4188 78.9037 69.3718 80.3582C69.3247 81.8128 69.9466 82.9077 71.2373 83.6431C72.0988 84.1339 73.1246 84.219 74.321 83.902C75.5142 83.5832 76.7265 82.9007 77.9561 81.8577L85.7187 70.7346C85.0921 69.9782 84.408 69.3887 83.6569 68.9608C81.8865 67.9522 79.9718 67.9598 77.9097 68.982C75.8476 70.0042 73.7433 72.0468 71.5983 75.1148Z" fill="#222222"/>
<defs>
<filter id="filter0_d_49_114" x="8.46806" y="10.1144" width="136.344" height="134.434" filterUnits="userSpaceOnUse" color-interpolation-filters="sRGB">
<feFlood flood-opacity="0" result="BackgroundImageFix"/>
<feColorMatrix in="SourceAlpha" type="matrix" values="0 0 0 0 0 0 0 0 0 0 0 0 0 0 0 0 0 0 127 0" result="hardAlpha"/>
<feOffset dy="0.467171"/>
<feGaussianBlur stdDeviation="0.700756"/>
<feComposite in2="hardAlpha" operator="out"/>
<feColorMatrix type="matrix" values="0 0 0 0 0 0 0 0 0 0 0 0 0 0 0 0 0 0 0.22 0"/>
<feBlend mode="normal" in2="BackgroundImageFix" result="effect1_dropShadow_49_114"/>
<feBlend mode="normal" in="SourceGraphic" in2="effect1_dropShadow_49_114" result="shape"/>
</filter>
<filter id="filter1_d_49_114" x="25.9669" y="26.4651" width="102.051" height="100.382" filterUnits="userSpaceOnUse" color-interpolation-filters="sRGB">
<feFlood flood-opacity="0" result="BackgroundImageFix"/>
<feColorMatrix in="SourceAlpha" type="matrix" values="0 0 0 0 0 0 0 0 0 0 0 0 0 0 0 0 0 0 127 0" result="hardAlpha"/>
<feOffset dy="0.467171"/>
<feGaussianBlur stdDeviation="0.700756"/>
<feComposite in2="hardAlpha" operator="out"/>
<feColorMatrix type="matrix" values="0 0 0 0 0 0 0 0 0 0 0 0 0 0 0 0 0 0 0.22 0"/>
<feBlend mode="normal" in2="BackgroundImageFix" result="effect1_dropShadow_49_114"/>
<feBlend mode="normal" in="SourceGraphic" in2="effect1_dropShadow_49_114" result="shape"/>
</filter>
<filter id="filter2_d_49_114" x="19.967" y="20.465" width="114.051" height="112.382" filterUnits="userSpaceOnUse" color-interpolation-filters="sRGB">
<feFlood flood-opacity="0" result="BackgroundImageFix"/>
<feColorMatrix in="SourceAlpha" type="matrix" values="0 0 0 0 0 0 0 0 0 0 0 0 0 0 0 0 0 0 127 0" result="hardAlpha"/>
<feOffset dy="0.467171"/>
<feGaussianBlur stdDeviation="0.700756"/>
<feComposite in2="hardAlpha" operator="out"/>
<feColorMatrix type="matrix" values="0 0 0 0 0 0 0 0 0 0 0 0 0 0 0 0 0 0 0.22 0"/>
<feBlend mode="normal" in2="BackgroundImageFix" result="effect1_dropShadow_49_114"/>
<feBlend mode="normal" in="SourceGraphic" in2="effect1_dropShadow_49_114" result="shape"/>
</filter>
</defs>
</svg>
