<svg width="302" height="218" viewBox="0 0 302 218" fill="none" xmlns="http://www.w3.org/2000/svg">
<g filter="url(#filter0_d_1_1079)">
<g filter="url(#filter1_d_1_1079)">
<path d="M286.018 112.483C284.922 112.59 283.484 112.17 283.231 111.098C281.098 102.043 276.355 95.2019 269.125 90.7488C268.557 90.396 267.979 90.0649 267.391 89.7551C266.835 89.4615 267.04 88.2918 267.652 88.1476C269.795 87.6427 271.703 86.5766 273.203 85.1248C274.7 83.6639 275.784 81.838 276.258 79.8091C277.225 75.66 275.577 71.491 271.96 68.9518L270.072 67.624C264.954 64.0125 262.439 58.1594 263.53 52.3238L263.7 51.3973C264.381 47.8165 263.113 44.2133 260.312 41.7515C257.439 39.2007 253.258 38.1724 249.409 39.0793C246.849 39.6823 244.556 41.1091 242.955 43.0858L242.326 43.8504C240 46.7013 236.658 48.7605 232.897 49.6468C230.56 50.1973 228.165 50.28 225.787 49.9154C224.654 49.7396 223.841 48.7323 223.907 47.5882L224.968 29.3117C225.293 23.7185 220.528 19.1866 214.983 19.988C204.445 21.5112 189.699 24.1847 188.652 27.3329C188.054 29.1307 182.415 30.888 180.894 29.7582C176.69 26.6353 145.678 37.8768 143.912 41.3047C143.419 42.261 141.814 47.484 140.744 47.6023C138.674 47.8315 136.662 48.158 134.93 48.5661C131.346 49.4104 128.033 50.6706 125.033 52.3153C119.934 55.111 112.922 54.6738 108.22 51.2516C106.604 50.0751 104.863 49.0122 102.998 48.0642C93.6995 43.3558 83.039 42.2614 71.3084 44.7996C70.5248 44.9691 69.7361 45.0512 68.9344 45.0574C64.1121 45.0947 46.0431 45.941 39.5853 56.3203C32.1043 68.3443 54.5848 109.116 43.7619 117.82C38.0923 122.38 30.5741 124.644 24.7 125.767C19.6562 126.731 15.6403 131.113 16.1594 136.222C17.917 153.518 23.1689 189.685 36.9496 200.167C54.6766 213.651 124.577 183.256 129.13 181.254C129.27 181.192 129.337 181.043 129.302 180.894C129.243 180.642 129.493 180.427 129.735 180.52C136.142 182.982 143.352 183.617 150.561 181.918C159.656 179.775 167.108 174.313 171.887 167.154C173.539 164.681 176.997 163.858 179.617 165.264C185.653 168.514 192.251 169.417 198.707 167.895C200.326 167.514 201.969 166.973 203.566 166.278C205.954 165.252 208.084 163.996 209.948 162.527C210.707 161.929 211.519 161.397 212.406 161.015L233.888 151.763C235.954 150.873 238.265 150.837 240.461 151.32C245.786 152.493 251.621 152.344 257.892 150.867C276.57 146.466 283.259 135.335 285.513 126.372C285.694 125.655 285.934 124.956 286.234 124.28C287.253 121.984 289.489 116.38 288.239 113.935C287.615 112.717 286.791 112.408 286.018 112.483Z" fill="#0A6842"/>
<path d="M53.3882 40.9968C59.9874 39.3115 66.2572 39.0777 68.8878 39.0574C69.3057 39.0541 69.6839 39.0124 70.04 38.9354C82.8992 36.153 94.997 37.2875 105.708 42.7112L105.717 42.7152C107.853 43.8008 109.867 45.0285 111.751 46.4002C114.567 48.4497 119.079 48.7373 122.148 47.0546C125.65 45.1346 129.475 43.6869 133.553 42.7259C134.7 42.4558 135.923 42.2234 137.177 42.0266C137.368 41.5458 137.56 41.0509 137.747 40.5549C137.863 40.2497 137.987 39.9196 138.101 39.6307C138.194 39.3983 138.368 38.9654 138.579 38.557L138.708 38.3169C139.372 37.143 140.264 36.3543 140.741 35.9587C141.363 35.4423 142.048 34.9812 142.697 34.5827C144.004 33.7803 145.612 32.9605 147.329 32.1679C150.79 30.5701 155.174 28.8629 159.582 27.3856C163.974 25.9136 168.582 24.605 172.474 23.8675C174.4 23.5024 176.348 23.2388 178.098 23.2176C178.974 23.207 179.956 23.2538 180.941 23.4436C181.482 23.5478 182.16 23.7241 182.882 24.0346C183.013 24.0052 183.165 23.9678 183.331 23.9159C183.497 23.8641 183.643 23.8091 183.766 23.7591C184.533 22.5655 185.501 21.7716 186.145 21.3073C187.176 20.5652 188.33 19.9938 189.388 19.5461C191.522 18.6427 194.156 17.8759 196.836 17.2221C202.254 15.9007 208.802 14.8188 214.125 14.0495C223.571 12.6843 231.495 20.4227 230.959 29.6596L230.122 44.0494C230.592 43.9944 231.059 43.9159 231.521 43.8071C234.058 43.2094 236.226 41.8355 237.678 40.0569L237.69 40.0419L238.318 39.2768C240.78 36.2528 244.234 34.1348 248.033 33.2396C253.712 31.9015 259.896 33.3725 264.273 37.2449C268.609 41.0569 270.674 46.7636 269.6 52.482L269.601 52.4828L269.431 53.4097L269.429 53.4182L269.428 53.4265C268.8 56.7826 270.182 60.3581 273.531 62.7214L273.53 62.7217L275.407 64.0412L275.917 64.4126C281.099 68.3333 283.601 74.735 282.101 81.1706L282.101 81.1727C281.345 84.4098 279.638 87.2292 277.392 89.4197L277.384 89.4276L277.383 89.4279C282.505 93.9656 286.137 99.8121 288.262 106.736C288.9 106.904 289.55 107.161 290.19 107.531C291.694 108.401 292.738 109.655 293.444 110.944L293.58 111.203L293.759 111.575C294.601 113.437 294.657 115.317 294.587 116.589C294.507 118.054 294.209 119.489 293.886 120.705C293.237 123.145 292.278 125.451 291.718 126.714C291.559 127.072 291.43 127.446 291.332 127.836C290.005 133.111 287.342 139.137 282.184 144.493C277.002 149.873 269.592 154.274 259.268 156.707C252.275 158.354 245.517 158.577 239.171 157.18C237.844 156.888 236.876 157.009 236.262 157.273L214.78 166.525C214.519 166.637 214.159 166.848 213.662 167.24C211.357 169.056 208.768 170.574 205.934 171.792L205.933 171.791C204.015 172.623 202.04 173.274 200.084 173.735C192.178 175.598 184.108 174.477 176.838 170.581C176.831 170.581 176.821 170.581 176.81 170.583C171.212 178.915 162.518 185.265 151.937 187.758C144.633 189.479 137.317 189.148 130.613 187.151C126.02 189.141 108.601 196.516 89.7266 202.258C79.4478 205.385 68.4946 208.104 58.8348 209.148C54.0039 209.669 49.3012 209.794 45.0641 209.261C40.8757 208.733 36.6873 207.506 33.3172 204.942C28.7843 201.494 25.3647 196.297 22.7224 190.776C20.0407 185.173 17.9219 178.731 16.2387 172.261C12.8716 159.317 11.0814 145.604 10.1897 136.828C9.29049 127.979 16.1576 121.291 23.5739 119.873C29.0914 118.819 35.4662 116.792 40.0017 113.144C40.0175 113.131 40.0769 113.083 40.1668 112.921C40.2659 112.742 40.4054 112.416 40.5247 111.876C40.7746 110.745 40.8544 109.074 40.6476 106.765C40.2309 102.11 38.8088 96.3053 37.1205 89.828C35.4947 83.5908 33.6215 76.7296 32.6767 70.7087C32.2002 67.672 31.9161 64.6012 32.0697 61.7367C32.2211 58.913 32.8193 55.8381 34.4913 53.1507C38.97 45.9524 47.0077 42.6262 53.3882 40.9968Z" stroke="white" stroke-width="12"/>
</g>
<path d="M99.5767 58.0812C92.3756 54.4017 84.0394 53.6778 74.5581 55.9118L50.2346 61.643L63.6317 118.501L88.3915 112.667C97.4332 110.652 104.414 106.233 109.317 99.4218C114.221 92.6109 115.577 84.9495 113.385 76.4286C111.37 67.8757 106.766 61.7538 99.5767 58.0812ZM95.4426 93.6922C93.4002 97.1409 89.7179 99.4923 84.4054 100.744L76.8727 102.519L69.1988 69.9503L77.0804 68.0932C82.1022 66.9099 86.3241 67.4567 89.758 69.7404C93.1898 72.0149 95.4751 75.5904 96.6236 80.4648C97.8861 85.8229 97.4925 90.232 95.4426 93.6922Z" fill="white"/>
<path d="M200.689 35.7695L200.628 59.4852C200.651 65.1837 201.603 70.875 203.487 76.5685L199.171 77.9228C197.324 72.1722 194.769 66.9741 191.517 62.3353L177.684 42.9723L163.161 47.5215L194.345 87.7118L212.909 81.902L214.737 31.3802L200.698 35.7672L200.689 35.7695Z" fill="white"/>
<path d="M80.5367 123.411L78.2596 147.1C77.9507 152.433 79.1023 160.621 81.7047 171.666L76.3921 172.918C75.0006 167.012 73.6937 162.117 72.4813 158.231C71.4077 154.717 70.1669 151.752 68.7493 149.341L56.2132 129.142L30.8621 135.115L44.2592 191.974L59.848 188.3L55.9637 171.815C53.6667 162.067 48.8193 152.004 41.4312 141.624L46.5182 138.633L74.6612 184.81L87.7681 181.722L92.4023 127.735L98.3088 128.222C96.3255 141.041 96.4516 152.217 98.697 161.746L102.581 178.231L118.335 174.52L104.938 117.661L80.527 123.413L80.5367 123.411Z" fill="white"/>
<path d="M204.227 91.1739L190.196 97.2451L194.075 105.763C195.566 109.006 197.093 111.536 198.685 113.339C200.276 115.142 202.254 116.805 204.628 118.326L199.149 120.696C193.95 115.784 188.288 114.642 182.149 117.293C177.535 119.295 174.588 122.813 173.349 127.845C172.099 132.88 172.849 138.407 175.602 144.445C178.345 150.485 182.032 154.752 186.642 157.25C191.252 159.747 195.921 159.977 200.647 157.929C206.72 155.303 209.722 150.453 209.651 143.378L215.14 141.006C214.412 144.781 214.568 147.789 215.575 150.018L228.475 144.444L204.217 91.1762L204.227 91.1739ZM207.748 140.339C207.193 142.849 205.674 144.653 203.203 145.717C197.938 147.998 193.635 145.456 190.274 138.097C186.925 130.745 187.889 125.932 193.163 123.649C195.678 122.555 198.074 122.646 200.327 123.916C202.583 125.196 204.528 127.628 206.165 131.231C207.779 134.782 208.32 137.815 207.748 140.339Z" fill="white"/>
<path d="M261.33 123.677C260.435 128.349 258.055 131.145 254.167 132.061C249.087 133.258 245.734 130.926 244.122 125.082L274.01 118.04C273.819 116.707 273.623 115.616 273.419 114.749C271.9 108.305 268.721 103.581 263.879 100.579C259.047 97.5746 253.144 96.8844 246.174 98.5268C239.611 100.073 234.657 103.37 231.323 108.414C227.988 113.458 227.077 119.145 228.57 125.48C230.166 132.253 233.448 137.106 238.421 140.058C243.391 143.001 249.414 143.634 256.501 141.965C267.524 139.367 273.989 133.585 275.917 124.614L261.32 123.679L261.33 123.677ZM248.464 107.853C250.625 107.344 252.511 107.574 254.09 108.541C255.678 109.506 256.825 111.115 257.525 113.349L242.537 116.88C241.867 111.951 243.839 108.943 248.454 107.856L248.464 107.853Z" fill="white"/>
<path d="M154.08 84.674C153.185 89.3457 150.803 92.1327 146.915 93.0487C141.835 94.2456 138.484 91.9232 136.86 86.0722L166.758 79.0276C166.569 77.704 166.371 76.6041 166.167 75.7369C164.648 69.2926 161.468 64.5693 156.627 61.5671C151.795 58.5626 145.894 57.8815 138.924 59.5239C132.361 61.0704 127.407 64.3668 124.073 69.411C120.738 74.4552 119.827 80.1425 121.32 86.4773C122.916 93.2502 126.188 98.1059 131.169 101.046C136.139 103.989 142.164 104.631 149.251 102.962C160.273 100.365 166.739 94.5825 168.667 85.6111L154.07 84.6763L154.08 84.674ZM141.211 68.8413C143.373 68.3319 145.259 68.562 146.838 69.5293C148.428 70.5034 149.563 72.1052 150.273 74.3369L135.285 77.8683C134.605 72.9414 136.577 69.9332 141.202 68.8436L141.211 68.8413Z" fill="white"/>
<path d="M266.122 78.4398L264.243 77.1097C255.965 71.2465 251.887 61.5416 253.655 51.9335L253.831 50.9864C253.934 50.4227 252.71 49.9209 252.339 50.3842L251.712 51.158C245.419 58.9322 235.033 62.7959 224.788 61.1824L222.471 60.8132C221.749 60.7038 221.49 61.2561 222.069 61.6691L223.948 62.9991C232.226 68.8623 236.303 78.5673 234.536 88.1754L234.36 89.1225C234.257 89.6862 235.481 90.188 235.852 89.7246L236.478 88.9509C242.771 81.1766 253.158 77.313 263.402 78.9265L265.72 79.2956C266.442 79.405 266.7 78.8527 266.122 78.4398Z" fill="#AEFFDF"/>
<path d="M137.995 122.07C150.898 119.03 163.857 127.124 166.924 140.14C169.993 153.166 162.019 166.183 149.106 169.225C136.202 172.266 123.244 164.171 120.177 151.155C117.108 138.129 125.082 125.113 137.995 122.07Z" fill="#AEFFDF"/>
<path d="M160.502 141.702L159.816 141.179L152.539 135.658L152.365 135.526L152.152 135.576L149.534 136.193L148.555 136.423L149.354 137.035L157.013 142.832L152.757 151.436L152.316 152.34L153.285 152.112L155.903 151.495L156.116 151.445L156.213 151.249L160.261 143.069L160.642 142.295L160.813 141.937L160.502 141.702Z" fill="#0A6842"/>
<path d="M134.954 139.628L133.984 139.857L131.357 140.476L131.144 140.526L131.047 140.722L127 148.911L126.62 149.685L126.446 150.034L126.76 150.278L127.445 150.801L134.72 156.313L134.895 156.445L135.108 156.395L137.725 155.778L138.695 155.55L137.896 154.938L130.256 149.136L134.512 140.532L134.954 139.628Z" fill="#0A6842"/>
<path d="M143.388 137.641L143.087 137.712L143.04 138.031L140.621 154.431L140.527 155.118L141.196 154.96L143.358 154.451L143.668 154.378L143.716 154.058L146.134 137.658L146.228 136.972L145.559 137.129L143.388 137.641Z" fill="#0A6842"/>
</g>
<defs>
<filter id="filter0_d_1_1079" x="-1" y="-0.546435" width="302.609" height="217.605" filterUnits="userSpaceOnUse" color-interpolation-filters="sRGB">
<feFlood flood-opacity="0" result="BackgroundImageFix"/>
<feColorMatrix in="SourceAlpha" type="matrix" values="0 0 0 0 0 0 0 0 0 0 0 0 0 0 0 0 0 0 127 0" result="hardAlpha"/>
<feOffset dy="0.453565"/>
<feGaussianBlur stdDeviation="0.5"/>
<feComposite in2="hardAlpha" operator="out"/>
<feColorMatrix type="matrix" values="0 0 0 0 0 0 0 0 0 0 0 0 0 0 0 0 0 0 0.2 0"/>
<feBlend mode="normal" in2="BackgroundImageFix" result="effect1_dropShadow_1_1079"/>
<feBlend mode="normal" in="SourceGraphic" in2="effect1_dropShadow_1_1079" result="shape"/>
</filter>
<filter id="filter1_d_1_1079" x="3.10703" y="7.88977" width="298.502" height="209.715" filterUnits="userSpaceOnUse" color-interpolation-filters="sRGB">
<feFlood flood-opacity="0" result="BackgroundImageFix"/>
<feColorMatrix in="SourceAlpha" type="matrix" values="0 0 0 0 0 0 0 0 0 0 0 0 0 0 0 0 0 0 127 0" result="hardAlpha"/>
<feOffset dy="1"/>
<feGaussianBlur stdDeviation="0.5"/>
<feComposite in2="hardAlpha" operator="out"/>
<feColorMatrix type="matrix" values="0 0 0 0 0 0 0 0 0 0 0 0 0 0 0 0 0 0 0.15 0"/>
<feBlend mode="normal" in2="BackgroundImageFix" result="effect1_dropShadow_1_1079"/>
<feBlend mode="normal" in="SourceGraphic" in2="effect1_dropShadow_1_1079" result="shape"/>
</filter>
</defs>
</svg>
