<svg width="193" height="184" viewBox="0 0 193 184" fill="none" xmlns="http://www.w3.org/2000/svg">
<g filter="url(#filter0_d_1_1094)">
<path fill-rule="evenodd" clip-rule="evenodd" d="M96.8622 22.8544C107.513 14.9973 123.424 18.492 132.399 30.6594C139.634 40.4664 140.153 52.9126 134.506 61.4874C135.53 61.4447 136.643 61.4676 137.83 61.594C141.38 61.9721 144.024 63.166 144.184 63.2332C153.349 67.0733 158.53 76.4182 157.5 85.8177C163.258 87.7986 168.166 92.1554 170.655 98.2331C173.212 104.476 172.675 111.216 169.76 116.752C168.748 119.201 167.074 121.374 164.86 122.983C163.077 124.553 161.006 125.857 158.684 126.808L157.897 127.131C156.034 127.894 154.126 128.38 152.22 128.611L121.135 141.34C118.592 142.381 115.925 142.653 113.393 142.263C112.422 142.269 111.427 142.184 110.422 141.986C109.429 141.791 108.418 141.481 107.427 141.05C104.125 145.891 99.0652 149.184 93.5296 151.424L93.5277 151.424C86.3232 154.337 78.5397 155.315 71.3438 151.94C64.3645 148.665 60.7195 142.569 58.7282 137.706L56.6532 132.639C49.7609 134.302 42.4981 130.733 39.7286 123.97C38.2371 120.327 38.3244 116.43 39.6727 113.04C37.4034 111.485 35.5469 109.271 34.4263 106.535C31.4178 99.1874 34.8333 90.8069 42.0602 87.631L35.7215 72.152C33.3879 72.4183 31.0172 72.2197 28.7481 71.4937C26.6833 70.8328 23.2586 69.1715 20.9971 65.7702C20.2696 64.7983 19.6525 63.7188 19.171 62.5431C16.1146 55.0786 19.6879 46.5484 27.1522 43.4918L49.9771 34.1464C55.8349 31.748 62.3462 33.4337 66.3554 37.8778C67.1053 37.7394 67.876 37.659 68.6617 37.6397C68.7483 37.6265 68.8733 37.6074 69.0421 37.578C69.6223 37.4769 70.4565 37.3143 71.5298 37.1054C72.4833 36.9198 73.682 36.6871 74.6486 36.5235C74.7728 36.5025 74.8952 36.4834 75.0152 36.4641C75.7325 34.8822 76.7459 33.4018 78.0553 32.1084C81.7772 28.4322 86.9753 27.1653 91.7154 28.2938C93.0756 26.2257 94.7925 24.3812 96.8622 22.8544Z" fill="white"/>
</g>
<path d="M47.9925 83.8435L45.2303 77.0978C41.6868 68.4443 40.1963 66.7473 39.0562 66.1003C36.6799 64.766 33.9388 65.6498 32.8786 63.0605C30.8697 58.1546 44.7698 52.4628 46.1326 51.9048C50.2209 50.2307 58.6576 46.9352 60.5549 51.5685C61.5593 54.0215 58.9143 54.9455 58.0726 57.3588C57.3918 59.3879 59.8347 65.5482 61.7878 70.3179L64.55 77.0635C69.5163 89.1921 70.2224 88.5847 71.92 88.8444C74.0419 89.1689 75.8167 88.84 76.6817 90.9522C77.5187 92.9964 78.161 96.3137 63.2388 102.424C60.377 103.596 51.7637 107.043 49.9781 102.682C49.0852 100.502 51.2624 99.2127 51.8225 97.4716C52.2496 96.1829 51.8986 93.3828 47.9925 83.8435Z" fill="#222222"/>
<path d="M106.422 118.639L100.53 104.251C97.9988 98.0688 93.9997 102.473 92.6274 99.1212C91.1605 95.5388 97.9104 92.9098 100.279 91.9398C102.475 91.0407 108.831 88.4381 110.203 91.7894C111.528 95.0251 106.39 94.8351 108.543 100.093L114.932 115.694C115.996 118.294 121.732 132.138 101.74 140.324C78.9745 149.646 74.3242 131.04 74.0403 130.346L68.5748 116.999C67.3154 113.264 63.3863 114.873 62.2979 112.215C61.9667 111.406 60.0061 108.431 71.909 103.557C81.3273 99.7003 83.9439 100.653 84.8666 102.906C86.5701 107.067 80.7669 104.922 83.3645 112.09L87.718 122.722C90.5335 129.598 94.9318 132.924 101.057 130.416C110.186 126.678 106.682 119.274 106.422 118.639ZM130.695 107.215L128.352 101.495C125.348 94.1567 124.084 92.7176 123.117 92.169C121.102 91.0375 118.777 91.7869 117.878 89.5912C116.175 85.431 127.962 80.6044 129.118 80.1312C132.584 78.7116 139.739 75.9169 141.348 79.846C142.2 81.9262 139.957 82.7097 139.243 84.7562C138.665 86.4769 140.737 91.7008 142.393 95.7455L144.736 101.466C148.947 111.751 149.546 111.236 150.985 111.456C152.785 111.731 154.29 111.452 155.023 113.243C155.733 114.977 156.278 117.79 143.624 122.971C141.197 123.965 133.893 126.889 132.379 123.191C131.621 121.342 133.468 120.248 133.943 118.772C134.305 117.679 134.007 115.305 130.695 107.215Z" fill="#222222"/>
<path d="M106.854 28.785C102.147 30.8399 99.208 35.5455 98.8067 40.7129C95.123 37.329 89.9336 36.1722 85.2269 38.2271C78.4799 41.1728 75.3228 49.5761 78.1653 56.9813C81.0077 64.3865 87.7974 69.3479 95.3444 72.5633C102.891 75.7787 112.96 77.5845 112.96 77.5845C112.96 77.5845 118.724 68.9692 122.217 60.831C125.944 52.1532 127.07 44.3018 124.219 36.8745C121.368 29.4473 113.601 25.8393 106.854 28.785Z" fill="#EE1C25"/>
<defs>
<filter id="filter0_d_1_1094" x="16.1225" y="17.1906" width="158.127" height="139.327" filterUnits="userSpaceOnUse" color-interpolation-filters="sRGB">
<feFlood flood-opacity="0" result="BackgroundImageFix"/>
<feColorMatrix in="SourceAlpha" type="matrix" values="0 0 0 0 0 0 0 0 0 0 0 0 0 0 0 0 0 0 127 0" result="hardAlpha"/>
<feOffset dy="0.488875"/>
<feGaussianBlur stdDeviation="0.977751"/>
<feComposite in2="hardAlpha" operator="out"/>
<feColorMatrix type="matrix" values="0 0 0 0 0 0 0 0 0 0 0 0 0 0 0 0 0 0 0.25 0"/>
<feBlend mode="normal" in2="BackgroundImageFix" result="effect1_dropShadow_1_1094"/>
<feBlend mode="normal" in="SourceGraphic" in2="effect1_dropShadow_1_1094" result="shape"/>
</filter>
</defs>
</svg>
