<svg width="352" height="183" viewBox="0 0 352 183" fill="none" xmlns="http://www.w3.org/2000/svg">
<g filter="url(#filter0_d_1_1055)">
<mask id="path-1-outside-1_1_1055" maskUnits="userSpaceOnUse" x="117.727" y="-8.56805" width="239.174" height="158.987" fill="black">
<rect fill="white" x="117.727" y="-8.56805" width="239.174" height="158.987"/>
<path d="M216.727 19.0554C216.79 19.1348 227.591 32.7437 238.682 39.6466C249.805 46.5695 254.814 58.317 255.976 58.9767C257.138 59.6355 258.049 59.3839 259.072 58.1214C260.096 56.8585 262.894 51.3812 262.289 43.5131C261.684 35.6583 263.079 18.0719 263.084 18.0106C263.139 18.0953 277.708 40.4468 279.967 48.6258C282.231 56.8202 281.217 65.9203 281.77 67.9234C282.324 69.9261 283.982 70.2522 284.823 69.0401C285.664 67.8273 290.289 58.3185 294.487 50.1034C298.668 41.9212 307.914 34.4785 307.989 34.4185C307.958 34.5353 303.971 49.694 306.127 63.1554C308.292 76.6674 300.763 89.1341 300.416 90.0158C300.071 90.8949 300.818 91.4726 301.546 91.2717C302.275 91.0706 303.945 91.4347 314.555 81.6032C325.146 71.7892 340.858 67.0865 340.918 67.0686C340.909 67.0789 329.128 79.737 325.353 90.1836C324.135 93.553 322.037 97.0615 319.737 100.296L172.625 136.248C177.755 128.594 184.455 123.425 185.25 122.219C186.355 120.542 185.557 119.782 183.586 119.739C181.614 119.695 164.602 121.258 157.469 123.816C150.368 126.362 141.86 125.219 141.783 125.209C141.85 125.199 148.054 124.213 159.155 112.179C170.316 100.081 188.744 96.5577 190.233 95.5586C191.721 94.5597 191.388 94.0634 190.126 93.0403C188.861 92.0164 176.766 86.539 167.818 86.0708C158.903 85.6044 148.471 78.9433 148.393 78.8931C148.496 78.8712 166.75 74.9982 176.737 72.2397C186.752 69.4735 202.026 73.6819 203.037 73.7946C204.048 73.9073 205.423 73.9193 205.021 72.4631C204.62 71.0094 187.491 55.6342 187.419 55.5695L174.736 43.0014C174.82 43.0209 194.028 47.4823 204.812 49.0015C215.62 50.5242 226.141 60.9438 228.396 61.3022C230.65 61.6592 231.542 60.6296 231.19 59.3552C230.838 58.0805 226.658 45.7446 224.936 41.6793C223.213 37.6143 221.698 35.5714 220.147 31.4378C218.602 27.3181 216.74 19.1122 216.727 19.0554Z"/>
</mask>
<path d="M216.727 19.0554C216.79 19.1348 227.591 32.7437 238.682 39.6466C249.805 46.5695 254.814 58.317 255.976 58.9767C257.138 59.6355 258.049 59.3839 259.072 58.1214C260.096 56.8585 262.894 51.3812 262.289 43.5131C261.684 35.6583 263.079 18.0719 263.084 18.0106C263.139 18.0953 277.708 40.4468 279.967 48.6258C282.231 56.8202 281.217 65.9203 281.77 67.9234C282.324 69.9261 283.982 70.2522 284.823 69.0401C285.664 67.8273 290.289 58.3185 294.487 50.1034C298.668 41.9212 307.914 34.4785 307.989 34.4185C307.958 34.5353 303.971 49.694 306.127 63.1554C308.292 76.6674 300.763 89.1341 300.416 90.0158C300.071 90.8949 300.818 91.4726 301.546 91.2717C302.275 91.0706 303.945 91.4347 314.555 81.6032C325.146 71.7892 340.858 67.0865 340.918 67.0686C340.909 67.0789 329.128 79.737 325.353 90.1836C324.135 93.553 322.037 97.0615 319.737 100.296L172.625 136.248C177.755 128.594 184.455 123.425 185.25 122.219C186.355 120.542 185.557 119.782 183.586 119.739C181.614 119.695 164.602 121.258 157.469 123.816C150.368 126.362 141.86 125.219 141.783 125.209C141.85 125.199 148.054 124.213 159.155 112.179C170.316 100.081 188.744 96.5577 190.233 95.5586C191.721 94.5597 191.388 94.0634 190.126 93.0403C188.861 92.0164 176.766 86.539 167.818 86.0708C158.903 85.6044 148.471 78.9433 148.393 78.8931C148.496 78.8712 166.75 74.9982 176.737 72.2397C186.752 69.4735 202.026 73.6819 203.037 73.7946C204.048 73.9073 205.423 73.9193 205.021 72.4631C204.62 71.0094 187.491 55.6342 187.419 55.5695L174.736 43.0014C174.82 43.0209 194.028 47.4823 204.812 49.0015C215.62 50.5242 226.141 60.9438 228.396 61.3022C230.65 61.6592 231.542 60.6296 231.19 59.3552C230.838 58.0805 226.658 45.7446 224.936 41.6793C223.213 37.6143 221.698 35.5714 220.147 31.4378C218.602 27.3181 216.74 19.1122 216.727 19.0554Z" fill="#FFB327"/>
<path d="M216.727 19.0554L222.89 14.1682C220.609 11.2915 216.641 10.3758 213.329 11.9621C210.018 13.5484 208.245 17.2145 209.057 20.7951L216.727 19.0554ZM238.682 39.6466L242.838 32.969L242.838 32.9689L238.682 39.6466ZM255.976 58.9767L252.093 65.8168L252.096 65.8186L255.976 58.9767ZM259.072 58.1214L265.183 63.0734L265.183 63.073L259.072 58.1214ZM262.289 43.5131L270.131 42.9097L270.131 42.9097L262.289 43.5131ZM263.084 18.0106L269.672 13.715C267.834 10.8953 264.405 9.55797 261.143 10.3884C257.881 11.2187 255.509 14.0328 255.243 17.3883L263.084 18.0106ZM279.967 48.6258L287.549 46.5318L287.549 46.5317L279.967 48.6258ZM281.77 67.9234L274.189 70.0175L274.189 70.0183L281.77 67.9234ZM284.823 69.0401L291.285 73.5236L291.285 73.5231L284.823 69.0401ZM294.487 50.1034L287.483 46.5242L287.483 46.5242L294.487 50.1034ZM307.989 34.4185L315.594 36.4244C316.46 33.1401 315.12 29.6707 312.272 27.8213C309.423 25.9719 305.708 26.1602 303.061 28.2884L307.989 34.4185ZM306.127 63.1554L313.894 61.9114L313.894 61.9113L306.127 63.1554ZM300.416 90.0158L293.096 87.1382L293.094 87.1427L300.416 90.0158ZM301.546 91.2717L303.638 98.8537L303.639 98.8535L301.546 91.2717ZM314.555 81.6032L319.901 87.3724L319.901 87.3724L314.555 81.6032ZM340.918 67.0686L346.675 72.4275C349.094 69.8295 349.472 65.9338 347.6 62.9187C345.727 59.9037 342.067 58.5164 338.666 59.5327L340.918 67.0686ZM325.353 90.1836L317.956 87.5103L317.956 87.5104L325.353 90.1836ZM319.737 100.296L321.604 107.937C323.439 107.488 325.052 106.394 326.147 104.854L319.737 100.296ZM172.625 136.248L166.092 131.869C164.285 134.565 164.319 138.094 166.178 140.754C168.037 143.414 171.339 144.659 174.492 143.889L172.625 136.248ZM185.25 122.219L191.818 126.545L191.819 126.545L185.25 122.219ZM183.586 119.739L183.759 111.875L183.759 111.875L183.586 119.739ZM157.469 123.816L154.814 116.412L154.814 116.412L157.469 123.816ZM141.783 125.209L140.582 117.436C136.72 118.033 133.882 121.375 133.918 125.283C133.955 129.191 136.856 132.479 140.729 133.003L141.783 125.209ZM159.155 112.179L153.374 106.846L153.374 106.846L159.155 112.179ZM190.233 95.5586L194.616 102.09L194.617 102.089L190.233 95.5586ZM190.126 93.0403L195.078 86.9298L195.076 86.9278L190.126 93.0403ZM167.818 86.0708L167.407 93.9254L167.407 93.9254L167.818 86.0708ZM148.393 78.8931L146.761 71.199C143.638 71.8613 141.226 74.345 140.655 77.4853C140.083 80.6256 141.466 83.7998 144.155 85.5194L148.393 78.8931ZM176.737 72.2397L174.643 64.6583L174.642 64.6583L176.737 72.2397ZM203.037 73.7946L202.166 81.6115L202.166 81.6115L203.037 73.7946ZM205.021 72.4631L212.603 70.37L212.603 70.369L205.021 72.4631ZM187.419 55.5695L181.883 61.1563C181.975 61.2474 182.069 61.3363 182.165 61.4228L187.419 55.5695ZM174.736 43.0014L176.516 35.3401C173.09 34.5441 169.552 36.1199 167.851 39.1991C166.151 42.2783 166.701 46.1122 169.2 48.5882L174.736 43.0014ZM204.812 49.0015L205.91 41.2131L205.91 41.2131L204.812 49.0015ZM228.396 61.3022L227.162 69.07L227.166 69.0706L228.396 61.3022ZM231.19 59.3552L238.772 57.2628L238.772 57.2611L231.19 59.3552ZM224.936 41.6793L232.178 38.6107L232.178 38.6106L224.936 41.6793ZM220.147 31.4378L212.783 34.1996L212.783 34.1998L220.147 31.4378ZM216.727 19.0554L210.565 23.9427C210.685 24.094 213.567 27.7198 217.889 32.2325C222.136 36.6664 228.145 42.3527 234.526 46.3242L238.682 39.6466L242.838 32.9689C238.128 30.0375 233.192 25.4679 229.249 21.3518C225.383 17.3146 222.833 14.0962 222.89 14.1682L216.727 19.0554ZM238.682 39.6466L234.526 46.3241C238.88 49.0341 242.206 52.8063 244.674 56.2461C245.898 57.9513 246.858 59.497 247.662 60.7939C248.029 61.3866 248.463 62.0913 248.846 62.6561C249.039 62.9395 249.324 63.3464 249.669 63.7602C249.861 63.9912 250.706 65.0295 252.093 65.8168L255.976 58.9767L259.859 52.1366C260.585 52.5486 261.066 52.9832 261.278 53.1858C261.521 53.4166 261.684 53.6062 261.756 53.6937C261.895 53.8596 261.942 53.9397 261.864 53.8252C261.708 53.5942 261.473 53.2189 261.034 52.5093C260.224 51.2017 259.019 49.2541 257.454 47.0746C254.347 42.745 249.607 37.182 242.838 32.969L238.682 39.6466ZM255.976 58.9767L252.096 65.8186C253.845 66.8104 256.541 67.7153 259.67 66.8509C262.472 66.077 264.239 64.238 265.183 63.0734L259.072 58.1214L252.962 53.1694C252.967 53.1626 253.147 52.9376 253.517 52.6519C253.907 52.3515 254.563 51.942 255.482 51.6881C257.61 51.1005 259.268 51.8018 259.856 52.1348L255.976 58.9767ZM259.072 58.1214L265.183 63.073C266.541 61.3975 267.887 58.6848 268.826 55.5505C269.823 52.2208 270.516 47.9134 270.131 42.9097L262.289 43.5131L254.446 44.1165C254.667 46.9809 254.263 49.3462 253.756 51.0379C253.191 52.9251 252.627 53.5824 252.961 53.1698L259.072 58.1214ZM262.289 43.5131L270.131 42.9097C269.873 39.5544 270.037 33.6738 270.313 28.2385C270.581 22.9584 270.925 18.6295 270.924 18.6328L263.084 18.0106L255.243 17.3883C255.238 17.453 254.882 21.9479 254.603 27.4401C254.331 32.777 254.1 39.617 254.446 44.1166L262.289 43.5131ZM263.084 18.0106L256.495 22.3061C256.492 22.3021 257.391 23.6803 258.774 25.8739C260.158 28.0699 262.016 31.0654 263.936 34.2987C265.864 37.5443 267.815 40.965 269.402 44.0255C271.074 47.2475 272.06 49.5408 272.386 50.7199L279.967 48.6258L287.549 46.5317C286.745 43.6214 285.063 40.0536 283.366 36.7817C281.585 33.3483 279.466 29.6422 277.462 26.267C273.448 19.5078 269.723 13.7933 269.672 13.715L263.084 18.0106ZM279.967 48.6258L272.386 50.7199C273.264 53.8986 273.555 57.4729 273.648 60.8148C273.696 62.5373 273.688 63.8762 273.709 65.3283C273.718 65.9866 273.735 66.7016 273.778 67.365C273.813 67.9081 273.893 68.9459 274.189 70.0175L281.77 67.9234L289.352 65.8293C289.509 66.4001 289.499 66.7154 289.475 66.3454C289.459 66.0957 289.447 65.7071 289.438 65.1025C289.422 64.0289 289.423 62.2051 289.372 60.3779C289.268 56.6204 288.934 51.5475 287.549 46.5318L279.967 48.6258ZM281.77 67.9234L274.189 70.0183C274.935 72.7172 276.949 76.0021 280.885 77.2078C285.153 78.515 289.169 76.5738 291.285 73.5236L284.823 69.0401L278.361 64.5565C279.636 62.7185 282.402 61.2203 285.492 62.1669C288.251 63.0118 289.159 65.1322 289.351 65.8285L281.77 67.9234ZM284.823 69.0401L291.285 73.5231C291.853 72.7047 292.566 71.3358 293.079 70.3465C293.723 69.1063 294.531 67.5068 295.424 65.7281C297.229 62.136 299.408 57.7578 301.491 53.6825L294.487 50.1034L287.483 46.5242C285.368 50.6641 283.135 55.1478 281.368 58.6671C280.475 60.4441 279.707 61.9626 279.115 63.1032C278.394 64.4946 278.213 64.7691 278.36 64.557L284.823 69.0401ZM294.487 50.1034L301.491 53.6825C303.042 50.6478 305.746 47.4136 308.385 44.7305C310.941 42.1324 313.019 40.4666 312.917 40.5485L307.989 34.4185L303.061 28.2884C302.884 28.4304 300.302 30.516 297.171 33.6997C294.123 36.7986 290.114 41.3768 287.483 46.5242L294.487 50.1034ZM307.989 34.4185L300.384 32.4125C300.344 32.5625 295.918 49.1506 298.361 64.3995L306.127 63.1554L313.894 61.9113C312.988 56.2555 313.35 49.9565 314.034 44.8215C314.708 39.7641 315.631 36.2848 315.594 36.4244L307.989 34.4185ZM306.127 63.1554L298.361 64.3994C300.08 75.1329 294.125 84.5208 293.096 87.1382L300.416 90.0158L307.736 92.8933C307.4 93.7474 316.503 78.2018 313.894 61.9114L306.127 63.1554ZM300.416 90.0158L293.094 87.1427C291.886 90.2209 292.362 94.0173 295.082 96.6749C297.482 99.0192 300.805 99.6354 303.638 98.8537L301.546 91.2717L299.454 83.6896C301.559 83.1089 304.144 83.5367 306.075 85.4226C308.326 87.6218 308.601 90.6898 307.738 92.8889L300.416 90.0158ZM301.546 91.2717L303.639 98.8535C303.436 98.9095 302.755 99.0542 303.491 98.9002C303.878 98.819 304.38 98.6953 304.978 98.4874C306.132 98.0861 307.292 97.4929 308.556 96.692C311.001 95.1422 314.486 92.3898 319.901 87.3724L314.555 81.6032L309.209 75.834C304.013 80.6481 301.359 82.6294 300.134 83.4058C299.563 83.7679 299.506 83.7358 299.81 83.63C299.983 83.5699 300.152 83.5275 300.268 83.5033C300.731 83.4063 299.839 83.5836 299.453 83.6899L301.546 91.2717ZM314.555 81.6032L319.901 87.3724C324.327 83.2705 330.059 80.0544 334.956 77.8155C339.781 75.6097 343.357 74.5489 343.17 74.6046L340.918 67.0686L338.666 59.5327C338.561 59.5641 321.255 64.6716 309.209 75.834L314.555 81.6032ZM340.918 67.0686L335.161 61.7098C335.064 61.8139 331.93 65.1859 328.299 69.9358C324.786 74.5312 320.273 81.0987 317.956 87.5103L325.353 90.1836L332.75 92.8569C334.208 88.8219 337.473 83.837 340.796 79.4892C344.002 75.2959 346.763 72.3337 346.675 72.4275L340.918 67.0686ZM325.353 90.1836L317.956 87.5104C317.084 89.9223 315.44 92.7669 313.327 95.7383L319.737 100.296L326.147 104.854C328.634 101.356 331.186 97.1838 332.75 92.8569L325.353 90.1836ZM319.737 100.296L317.87 92.6558L170.758 128.608L172.625 136.248L174.492 143.889L321.604 107.937L319.737 100.296ZM172.625 136.248L179.158 140.628C181.32 137.403 183.878 134.609 186.107 132.395C187.224 131.285 188.203 130.375 189.062 129.564C189.466 129.182 189.903 128.767 190.277 128.39C190.517 128.147 191.235 127.431 191.818 126.545L185.25 122.219L178.682 117.892C179.066 117.308 179.401 117.017 179.103 117.318C178.938 117.484 178.681 117.731 178.265 118.123C177.485 118.86 176.318 119.946 175.02 121.236C172.417 123.822 169.061 127.439 166.092 131.869L172.625 136.248ZM185.25 122.219L191.819 126.545C192.657 125.273 195.453 120.37 191.834 115.607C190.333 113.632 188.389 112.776 187.157 112.394C185.883 112 184.676 111.895 183.759 111.875L183.586 119.739L183.412 127.602C183.412 127.602 183.411 127.602 183.409 127.602C183.408 127.602 183.405 127.602 183.401 127.601C183.393 127.601 183.381 127.6 183.365 127.599C183.334 127.597 183.283 127.592 183.213 127.583C183.084 127.565 182.836 127.524 182.509 127.423C181.946 127.249 180.502 126.695 179.309 125.125C177.947 123.332 177.736 121.317 177.969 119.874C178.164 118.665 178.635 117.963 178.682 117.892L185.25 122.219ZM183.586 119.739L183.759 111.875C182.081 111.838 176.755 112.308 171.443 113.003C166.096 113.702 159.275 114.812 154.814 116.412L157.469 123.816L160.124 131.219C162.796 130.261 168.048 129.311 173.483 128.601C176.071 128.262 178.502 128.002 180.388 127.831C182.488 127.64 183.45 127.603 183.413 127.602L183.586 119.739ZM157.469 123.816L154.814 116.412C152.433 117.266 149.516 117.58 146.911 117.606C144.388 117.632 142.643 117.388 142.838 117.415L141.783 125.209L140.729 133.003C140.849 133.02 151.062 134.469 160.124 131.219L157.469 123.816ZM141.783 125.209L142.984 132.982C145.29 132.626 153.005 130.445 164.936 117.512L159.155 112.179L153.374 106.846C143.102 117.98 138.41 117.772 140.582 117.436L141.783 125.209ZM159.155 112.179L164.936 117.512C169.389 112.685 175.571 109.317 181.285 106.992C184.086 105.853 186.641 105.015 188.665 104.383C189.594 104.093 190.642 103.775 191.343 103.549C191.715 103.429 192.149 103.284 192.562 103.127C192.795 103.038 193.707 102.699 194.616 102.09L190.233 95.5586L185.851 89.0275C186.297 88.7277 186.656 88.5611 186.754 88.5162C186.827 88.4824 186.882 88.4592 186.912 88.4468C186.943 88.4341 186.96 88.4274 186.961 88.4273C186.962 88.4269 186.952 88.4305 186.93 88.4384C186.908 88.4462 186.878 88.4568 186.838 88.4705C186.757 88.4984 186.651 88.5337 186.513 88.5781C185.878 88.7829 185.155 88.9989 183.973 89.3685C181.773 90.0558 178.745 91.0428 175.357 92.4214C168.694 95.1323 160.081 99.575 153.374 106.846L159.155 112.179ZM190.233 95.5586L194.617 102.089C195.223 101.682 196.298 100.911 197.224 99.7242C198.301 98.3425 199.414 96.0516 198.994 93.1719C198.634 90.7071 197.305 89.1008 196.73 88.4623C196.096 87.759 195.416 87.2039 195.078 86.9298L190.126 93.0403L185.174 99.1508C185.467 99.3883 185.301 99.2789 185.039 98.9876C184.835 98.7611 183.733 97.5332 183.428 95.4452C183.063 92.9423 184.058 91.0267 184.819 90.051C185.428 89.2699 185.987 88.9357 185.849 89.0286L190.233 95.5586ZM190.126 93.0403L195.076 86.9278C194.254 86.2623 193.296 85.7503 192.854 85.5164C192.216 85.1781 191.462 84.8107 190.64 84.4342C188.989 83.678 186.879 82.8012 184.529 81.951C179.982 80.3058 173.86 78.5109 168.229 78.2163L167.818 86.0708L167.407 93.9254C170.724 94.0989 175.124 95.2767 179.177 96.7433C181.128 97.4489 182.838 98.1627 184.09 98.7362C184.719 99.0245 185.188 99.2567 185.488 99.4157C185.985 99.6791 185.682 99.5623 185.176 99.1529L190.126 93.0403ZM167.818 86.0708L168.229 78.2163C165.291 78.0626 161.553 76.7906 158.099 75.1899C154.806 73.6632 152.505 72.1867 152.63 72.2669L148.393 78.8931L144.155 85.5194C144.359 85.6497 147.314 87.5289 151.484 89.4619C155.495 91.3208 161.43 93.6126 167.407 93.9254L167.818 86.0708ZM148.393 78.8931L150.025 86.5873C150.059 86.5801 168.567 82.6561 178.831 79.8211L176.737 72.2397L174.642 64.6583C164.932 67.3404 146.934 71.1623 146.761 71.199L148.393 78.8931ZM176.737 72.2397L178.831 79.8211C182.217 78.8859 187.202 79.0378 192.184 79.7284C194.538 80.0547 196.66 80.466 198.277 80.8092C199.086 80.9808 199.758 81.133 200.297 81.2545C200.479 81.2956 201.473 81.5342 202.166 81.6115L203.037 73.7946L203.909 65.9778C204.349 66.0268 204.644 66.1093 203.759 65.9095C203.229 65.7901 202.464 65.6166 201.542 65.4211C199.698 65.0299 197.186 64.5409 194.344 64.1468C188.931 63.3964 181.272 62.8273 174.643 64.6583L176.737 72.2397ZM203.037 73.7946L202.166 81.6115C202.504 81.6492 204.968 82.0071 207.435 81.0379C209.012 80.4185 211.091 79.0597 212.231 76.4494C213.297 74.0077 212.979 71.7334 212.603 70.37L205.021 72.4631L197.44 74.5562C197.264 73.9209 196.925 72.1912 197.815 70.1533C198.779 67.9468 200.527 66.8509 201.684 66.3964C202.7 65.9973 203.491 65.9791 203.659 65.9755C203.9 65.9702 204.018 65.99 203.908 65.9777L203.037 73.7946ZM205.021 72.4631L212.603 70.369C212.291 69.241 211.796 68.4279 211.632 68.1615C211.399 67.782 211.167 67.4667 211.001 67.2499C210.665 66.8118 210.299 66.3917 209.982 66.0423C209.332 65.3248 208.512 64.4877 207.645 63.63C205.892 61.8939 203.638 59.7663 201.45 57.7333C197.058 53.6525 192.717 49.7562 192.673 49.7161L187.419 55.5695L182.165 61.4228C182.193 61.4475 186.453 65.2711 190.743 69.2575C192.896 71.2581 195.005 73.2509 196.578 74.8086C197.375 75.5977 197.959 76.2008 198.323 76.6026C198.514 76.813 198.556 76.8723 198.516 76.8192C198.497 76.7948 198.385 76.6484 198.239 76.4123C198.163 76.2894 197.726 75.5943 197.44 74.5572L205.021 72.4631ZM187.419 55.5695L192.955 49.9826L180.273 37.4146L174.736 43.0014L169.2 48.5882L181.883 61.1563L187.419 55.5695ZM174.736 43.0014L172.956 50.6626C173.023 50.6782 177.9 51.8108 184.129 53.1329C190.298 54.4426 198.029 55.9889 203.715 56.7899L204.812 49.0015L205.91 41.2131C195.541 39.7525 176.703 35.3836 176.516 35.3401L174.736 43.0014ZM204.812 49.0015L203.715 56.7898C207.276 57.2916 211.373 59.4176 215.451 62.1343C217.441 63.4605 219.093 64.6909 220.71 65.8448C221.453 66.3753 222.285 66.9579 223.063 67.4356C223.491 67.6986 225.136 68.7481 227.162 69.07L228.396 61.3022L229.63 53.5343C231.093 53.7666 231.915 54.4121 231.295 54.0308C231.023 53.8641 230.578 53.562 229.849 53.0415C228.521 52.0934 226.444 50.5565 224.172 49.0427C219.724 46.0793 213.156 42.2341 205.91 41.2131L204.812 49.0015ZM228.396 61.3022L227.166 69.0706C229.3 69.4087 232.763 69.4408 235.712 67.0597C239.165 64.2712 239.573 60.164 238.772 57.2628L231.19 59.3552L223.609 61.4476C223.403 60.701 223.268 59.5877 223.601 58.291C223.952 56.9254 224.739 55.7011 225.829 54.8212C226.864 53.9852 227.892 53.6781 228.533 53.5707C229.165 53.4648 229.565 53.524 229.627 53.5337L228.396 61.3022ZM231.19 59.3552L238.772 57.2611C238.33 55.6598 234.037 42.9982 232.178 38.6107L224.936 41.6793L217.694 44.7479C218.436 46.4991 219.827 50.3484 221.148 54.1467C221.791 55.9955 222.39 57.7551 222.848 59.1235C223.078 59.8088 223.268 60.3854 223.409 60.8203C223.57 61.3191 223.619 61.485 223.609 61.4493L231.19 59.3552ZM224.936 41.6793L232.178 38.6106C231.18 36.2562 230.221 34.4475 229.475 32.9932C228.731 31.5451 228.127 30.3172 227.512 28.6757L220.147 31.4378L212.783 34.1998C213.718 36.692 214.646 38.5523 215.479 40.1754C216.309 41.7922 216.969 43.0374 217.694 44.748L224.936 41.6793ZM220.147 31.4378L227.512 28.6759C226.903 27.0541 226.141 24.3416 225.481 21.7685C224.847 19.2952 224.396 17.3088 224.398 17.3158L216.727 19.0554L209.057 20.7951C209.071 20.8588 209.558 23.0038 210.244 25.6775C210.905 28.2515 211.846 31.7018 212.783 34.1996L220.147 31.4378Z" fill="white" mask="url(#path-1-outside-1_1_1055)"/>
<path d="M306.308 141.737L303.209 112.714L330.322 109.819L330.912 115.347L311.685 117.4L312.328 123.416L330.579 121.467L331.143 126.751L312.892 128.7L313.604 135.367L332.993 133.296L333.584 138.824L306.308 141.737Z" fill="#111111"/>
<path d="M299.334 121.638L290.595 122.571C290.391 121.688 290.028 120.987 289.507 120.467C288.985 119.947 288.371 119.588 287.665 119.389C286.956 119.164 286.217 119.051 285.45 119.05C284.679 119.023 283.82 119.06 282.872 119.161C281.273 119.332 280.007 119.796 279.073 120.554C278.164 121.281 277.763 122.146 277.871 123.149C277.952 123.908 278.301 124.487 278.919 124.887C279.562 125.257 280.42 125.467 281.495 125.516L291.541 126.047C293.004 126.137 294.297 126.314 295.422 126.578C296.573 126.839 297.589 127.237 298.468 127.774C299.375 128.307 300.109 129.024 300.671 129.923C301.233 130.822 301.582 131.909 301.718 133.182C301.869 134.592 301.749 135.906 301.358 137.127C300.968 138.347 300.224 139.468 299.127 140.489C298.058 141.508 296.573 142.365 294.674 143.062C292.775 143.758 290.443 144.253 287.679 144.549C285.538 144.777 283.549 144.88 281.71 144.857C279.898 144.831 278.157 144.565 276.486 144.058C274.841 143.549 273.459 142.668 272.339 141.418C271.219 140.167 270.531 138.473 270.275 136.335L279.136 135.388C279.265 136.334 279.579 137.095 280.079 137.672C280.579 138.249 281.201 138.676 281.943 138.953C282.709 139.2 283.52 139.347 284.374 139.392C285.253 139.408 286.167 139.366 287.115 139.264C289.039 139.059 290.525 138.599 291.572 137.884C292.62 137.169 293.078 136.202 292.948 134.982C292.835 133.925 292.363 133.222 291.53 132.873C290.722 132.493 289.437 132.26 287.673 132.174L280.361 131.845C278.875 131.785 277.545 131.653 276.372 131.449C275.224 131.215 274.157 130.85 273.172 130.352C272.187 129.854 271.371 129.146 270.725 128.229C270.103 127.281 269.717 126.102 269.566 124.693C269.231 121.55 270.204 119.116 272.487 117.392C274.797 115.666 278.295 114.552 282.984 114.051C284.772 113.86 286.505 113.785 288.181 113.825C289.857 113.866 291.489 114.13 293.076 114.618C294.66 115.079 296.02 115.88 297.155 117.019C298.291 118.159 299.017 119.698 299.334 121.638Z" fill="#111111"/>
<path d="M236.351 138.683L234.362 120.066L242.248 119.224L244.028 135.889C244.135 136.892 244.285 137.781 244.477 138.555C244.697 139.326 245.079 140.08 245.623 140.817C246.165 141.527 246.963 142.072 248.018 142.453C249.1 142.83 250.494 142.928 252.202 142.746C253.909 142.563 255.238 142.175 256.188 141.58C257.166 140.982 257.845 140.279 258.224 139.471C258.601 138.636 258.802 137.82 258.826 137.023C258.878 136.222 258.85 135.321 258.743 134.318L256.963 117.652L264.849 116.81L266.837 135.427C266.964 136.62 266.955 137.813 266.808 139.007C266.686 140.171 266.201 141.402 265.352 142.698C264.504 143.995 263.067 145.162 261.04 146.201C259.01 147.213 256.261 147.904 252.792 148.274C249.35 148.642 246.517 148.547 244.292 147.989C242.092 147.402 240.44 146.564 239.337 145.476C238.234 144.388 237.487 143.289 237.094 142.18C236.726 141.041 236.478 139.875 236.351 138.683Z" fill="#111111"/>
<path d="M188.138 139.679C187.947 137.891 187.99 136.118 188.269 134.362C188.571 132.575 189.278 130.855 190.39 129.202C191.499 127.521 193.208 126.078 195.519 124.872C197.854 123.636 200.864 122.821 204.549 122.427C208.235 122.034 211.335 122.196 213.852 122.914C216.392 123.602 218.381 124.65 219.82 126.059C221.255 127.44 222.296 128.974 222.942 130.659C223.612 132.314 224.043 134.036 224.234 135.824C224.425 137.613 224.369 139.401 224.066 141.187C223.788 142.943 223.095 144.662 221.986 146.343C220.874 147.996 219.151 149.441 216.816 150.677C214.506 151.883 211.508 152.683 207.822 153.076C204.137 153.47 201.024 153.323 198.484 152.635C195.968 151.917 193.992 150.867 192.556 149.485C191.118 148.077 190.063 146.545 189.393 144.89C188.747 143.205 188.329 141.468 188.138 139.679ZM196.511 138.785C196.639 139.977 196.941 141.137 197.417 142.265C197.891 143.365 198.558 144.349 199.418 145.217C200.305 146.081 201.403 146.732 202.71 147.168C204.017 147.604 205.525 147.73 207.232 147.548C208.939 147.366 210.386 146.924 211.571 146.221C212.757 145.519 213.679 144.653 214.336 143.624C215.021 142.591 215.479 141.487 215.709 140.312C215.937 139.109 215.987 137.911 215.86 136.719C215.733 135.526 215.432 134.38 214.958 133.279C214.482 132.152 213.8 131.156 212.913 130.291C212.053 129.424 210.969 128.772 209.661 128.336C208.354 127.9 206.847 127.773 205.14 127.955C203.432 128.138 201.986 128.58 200.8 129.282C199.614 129.984 198.679 130.852 197.994 131.884C197.337 132.914 196.894 134.03 196.666 135.233C196.436 136.409 196.384 137.593 196.511 138.785Z" fill="#111111"/>
<path d="M169.93 156.301L167.421 132.806L156.649 133.956L156.059 128.428L185.489 125.285L186.079 130.813L175.307 131.964L177.816 155.459L169.93 156.301Z" fill="#111111"/>
<path d="M129.947 160.571L128.867 150.449L114.003 132.919L123.271 131.929L132.141 143.768L138.311 130.323L147.579 129.334L136.752 149.607L137.833 159.728L129.947 160.571Z" fill="#111111"/>
<path d="M113.867 141.444L105.127 142.377C104.923 141.494 104.561 140.793 104.039 140.273C103.518 139.753 102.904 139.394 102.197 139.195C101.488 138.969 100.75 138.856 99.9822 138.856C99.2119 138.829 98.3525 138.866 97.404 138.967C95.8051 139.138 94.5391 139.602 93.6059 140.359C92.6969 141.087 92.2959 141.952 92.403 142.955C92.484 143.713 92.8337 144.293 93.4519 144.693C94.0944 145.063 94.9528 145.272 96.027 145.322L106.074 145.853C107.536 145.943 108.83 146.12 109.954 146.384C111.106 146.645 112.121 147.043 113.001 147.58C113.907 148.113 114.642 148.83 115.204 149.729C115.766 150.628 116.115 151.715 116.251 152.988C116.401 154.397 116.281 155.712 115.891 156.932C115.5 158.153 114.757 159.274 113.66 160.295C112.59 161.314 111.106 162.171 109.207 162.867C107.307 163.564 104.976 164.059 102.212 164.354C100.071 164.583 98.0811 164.686 96.2424 164.663C94.4307 164.637 92.6892 164.371 91.018 163.864C89.3739 163.355 87.9917 162.474 86.8715 161.224C85.7512 159.973 85.0632 158.278 84.8075 156.14L93.6689 155.194C93.7973 156.14 94.1116 156.901 94.6117 157.478C95.1119 158.055 95.733 158.482 96.4752 158.759C97.2416 159.006 98.0521 159.153 98.9067 159.198C99.7854 159.214 100.699 159.171 101.647 159.07C103.572 158.865 105.057 158.404 106.105 157.69C107.152 156.975 107.611 156.008 107.48 154.788C107.368 153.731 106.895 153.028 106.063 152.678C105.255 152.299 103.969 152.066 102.206 151.98L94.8939 151.651C93.4074 151.591 92.0777 151.458 90.9048 151.255C89.7562 151.021 88.6893 150.655 87.7043 150.158C86.7192 149.66 85.9036 148.952 85.2575 148.034C84.6355 147.087 84.2493 145.908 84.0988 144.499C83.7631 141.356 84.7366 138.922 87.0192 137.198C89.329 135.472 92.828 134.358 97.5161 133.857C99.3047 133.666 101.037 133.591 102.713 133.631C104.389 133.671 106.021 133.936 107.608 134.424C109.192 134.885 110.552 135.686 111.688 136.825C112.824 137.965 113.55 139.504 113.867 141.444Z" fill="#111111"/>
<path d="M71.3318 155.442L65.5506 144.425L62.2264 156.414L71.3318 155.442ZM77.0055 166.224L74.0098 160.501L60.677 161.924L58.9575 168.152L50.4619 169.059L60.1262 138.673L69.6381 137.657L85.5011 165.317L77.0055 166.224Z" fill="#111111"/>
<path d="M22.1572 172.081L19.0579 143.058L46.1706 140.163L46.7609 145.691L27.5341 147.744L28.1765 153.76L46.4278 151.811L46.9921 157.095L28.7408 159.044L29.4527 165.711L48.8422 163.64L49.4325 169.169L22.1572 172.081Z" fill="#111111"/>
<path d="M329.518 102.291C333.675 101.847 337.405 104.858 337.849 109.015L338.439 114.543L338.47 114.932C338.547 116.308 338.246 117.625 337.657 118.781C337.881 119.373 338.036 120.004 338.106 120.663L338.671 125.947L338.702 126.336C338.737 126.968 338.691 127.587 338.576 128.185C339.631 129.336 340.342 130.821 340.52 132.493L341.111 138.021L341.143 138.409C341.366 142.408 338.415 145.922 334.387 146.352L307.112 149.265C302.954 149.709 299.224 146.698 298.78 142.541L298.609 140.942C298.791 140.795 298.964 140.644 299.127 140.489C300.224 139.468 300.968 138.347 301.358 137.127C301.748 135.907 301.868 134.592 301.718 133.183C301.582 131.909 301.233 130.823 300.671 129.924C300.109 129.024 299.374 128.307 298.468 127.774C298.053 127.521 297.607 127.3 297.132 127.108L296.579 121.932L299.334 121.638C299.017 119.699 298.291 118.159 297.155 117.019C296.777 116.64 296.373 116.299 295.945 115.995L295.681 113.518C295.237 109.361 298.247 105.631 302.404 105.187L329.518 102.291ZM306.308 141.737L333.583 138.824L332.993 133.296L313.604 135.367L312.892 128.7L331.143 126.751L330.579 121.467L312.327 123.416L311.685 117.4L330.912 115.347L330.321 109.819L303.208 112.714L306.308 141.737Z" fill="white"/>
<path d="M264.855 116.81L263.329 116.973C264.313 114.849 265.83 112.933 267.924 111.352C267.934 111.344 267.944 111.336 267.953 111.329C271.839 108.425 276.908 107.087 282.179 106.524C284.272 106.301 286.334 106.209 288.362 106.258C290.686 106.313 292.969 106.678 295.191 107.351C295.218 107.359 295.245 107.367 295.272 107.375C295.282 107.378 295.292 107.38 295.302 107.383L295.301 107.384C297.862 108.148 300.171 109.455 302.125 111.295L302.517 111.675L302.746 111.91C302.987 112.164 303.217 112.425 303.436 112.69L303.208 112.714L306.308 141.737L307.676 141.591C306.819 143.273 305.667 144.73 304.346 145.971L304.347 145.972C304.337 145.982 304.326 145.991 304.315 146.001C304.306 146.01 304.296 146.02 304.286 146.029L304.286 146.028C302.254 147.943 299.789 149.25 297.279 150.17C294.628 151.142 291.65 151.738 288.482 152.077C286.092 152.332 283.799 152.454 281.615 152.427L281.602 152.427C279.109 152.392 276.662 152.023 274.288 151.303L274.244 151.289C271.508 150.441 269.08 148.966 267.092 146.892L266.699 146.469C265.887 145.562 265.22 144.588 264.677 143.572C264.935 143.287 265.163 142.996 265.358 142.698C266.206 141.401 266.692 140.171 266.814 139.007C266.96 137.813 266.97 136.619 266.843 135.427L264.855 116.81ZM269.566 124.694C269.716 126.103 270.103 127.281 270.725 128.229C271.371 129.146 272.186 129.855 273.171 130.353C274.156 130.85 275.223 131.216 276.372 131.449C277.545 131.653 278.874 131.785 280.361 131.846L287.673 132.175C289.436 132.261 290.722 132.494 291.53 132.873C292.362 133.223 292.835 133.926 292.948 134.983L292.965 135.208C293.018 136.322 292.554 137.214 291.572 137.884C290.525 138.599 289.038 139.059 287.114 139.264C286.166 139.366 285.253 139.408 284.374 139.393C283.519 139.347 282.708 139.201 281.942 138.954C281.2 138.677 280.579 138.25 280.079 137.673C279.579 137.096 279.264 136.334 279.136 135.389L270.274 136.335C270.53 138.473 271.218 140.168 272.338 141.419C273.459 142.669 274.841 143.549 276.485 144.059C278.156 144.566 279.898 144.832 281.709 144.858C283.548 144.881 285.538 144.778 287.679 144.549C290.443 144.254 292.775 143.758 294.674 143.062C296.573 142.366 298.057 141.508 299.127 140.489C300.155 139.532 300.873 138.487 301.281 137.355L301.358 137.127C301.724 135.983 301.852 134.756 301.743 133.446L301.718 133.183C301.59 131.989 301.276 130.959 300.774 130.094L300.671 129.924C300.109 129.025 299.374 128.307 298.468 127.774C297.588 127.237 296.573 126.839 295.421 126.578C294.297 126.314 293.003 126.138 291.541 126.047L281.494 125.517C280.42 125.467 279.561 125.257 278.919 124.888C278.3 124.488 277.951 123.908 277.87 123.149C277.763 122.146 278.164 121.282 279.073 120.554C280.006 119.797 281.272 119.332 282.871 119.161C283.819 119.06 284.679 119.024 285.449 119.051C286.217 119.051 286.955 119.164 287.665 119.39C288.371 119.589 288.985 119.948 289.506 120.468C290.028 120.988 290.39 121.689 290.594 122.572L299.334 121.638C299.017 119.699 298.291 118.159 297.155 117.02C296.019 115.88 294.659 115.08 293.075 114.619C291.488 114.131 289.857 113.866 288.181 113.826C286.504 113.785 284.772 113.861 282.983 114.052C278.295 114.553 274.796 115.666 272.486 117.393C270.204 119.117 269.23 121.55 269.566 124.694Z" fill="white"/>
<path d="M244.027 135.89L242.247 119.224L234.362 120.066L236.35 138.683L236.404 139.129C236.541 140.167 236.771 141.184 237.094 142.181C237.486 143.29 238.234 144.388 239.336 145.476C240.439 146.565 242.091 147.402 244.292 147.99C246.517 148.547 249.35 148.642 252.791 148.275C256.26 147.904 259.009 147.213 261.039 146.201C262.939 145.228 264.322 144.141 265.186 142.941L265.352 142.698C266.2 141.402 266.685 140.172 266.808 139.008C266.936 137.963 266.959 136.919 266.878 135.875L266.837 135.428L264.848 116.811L256.963 117.653L258.743 134.319L258.779 134.69C258.855 135.545 258.871 136.323 258.826 137.024C258.801 137.821 258.601 138.637 258.224 139.472C257.844 140.28 257.165 140.983 256.188 141.58C255.237 142.175 253.908 142.564 252.201 142.747C250.494 142.929 249.099 142.831 248.017 142.453C246.963 142.072 246.164 141.527 245.623 140.818C245.078 140.081 244.696 139.327 244.477 138.556C244.285 137.781 244.134 136.893 244.027 135.89ZM272.521 117.363C272.507 117.373 272.494 117.383 272.48 117.394C270.198 119.117 269.224 121.551 269.559 124.694C269.71 126.103 270.097 127.282 270.718 128.229C271.365 129.147 272.18 129.855 273.165 130.353C273.42 130.482 273.681 130.601 273.946 130.712L274.364 134.624L274.425 135.287C274.441 135.487 274.454 135.687 274.464 135.887L270.268 136.335C270.524 138.473 271.212 140.168 272.332 141.419C272.756 141.893 273.218 142.313 273.717 142.68C273.222 144.205 272.501 145.599 271.687 146.843C269.859 149.638 267.176 151.563 264.492 152.939C264.466 152.952 264.441 152.964 264.415 152.977C261.267 154.546 257.529 155.382 253.595 155.802C249.673 156.221 245.862 156.188 242.452 155.333L242.34 155.304C239.517 154.551 236.586 153.293 234.244 151.083L234.02 150.866C232.453 149.32 231.023 147.434 230.128 145.165L229.957 144.706L229.89 144.51C229.362 142.874 229.005 141.197 228.822 139.487L226.834 120.87C226.39 116.713 229.401 112.983 233.558 112.539L241.444 111.697C245.055 111.311 248.343 113.532 249.435 116.848C249.803 113.377 252.548 110.511 256.159 110.125L264.045 109.283C268.202 108.839 271.932 111.85 272.376 116.007L272.521 117.363Z" fill="white"/>
<path d="M184.686 117.758C188.844 117.314 192.574 120.324 193.018 124.481L193.211 126.293C192.025 127.168 191.08 128.138 190.377 129.204C189.265 130.857 188.558 132.577 188.255 134.363C188.057 135.611 187.98 136.868 188.02 138.132C187.652 138.229 187.273 138.299 186.884 138.341L183.64 138.687L185.345 154.655L185.376 155.043C185.6 159.042 182.649 162.556 178.622 162.986L170.735 163.828C166.578 164.272 162.848 161.262 162.404 157.105L160.699 141.137L157.455 141.484C153.298 141.928 149.567 138.917 149.123 134.76L148.533 129.232L148.501 128.843C148.278 124.844 151.229 121.331 155.257 120.9L184.686 117.758ZM156.061 128.428L156.651 133.956L167.423 132.806L169.932 156.301L177.818 155.458L175.309 131.964L186.08 130.813L185.49 125.285L156.061 128.428Z" fill="white"/>
<path d="M122.467 124.402C125.038 124.127 127.565 125.184 129.176 127.193L129.33 127.39L130.569 129.044L131.431 127.166L131.538 126.94C132.688 124.637 134.936 123.07 137.507 122.796L146.775 121.806C149.563 121.508 152.288 122.776 153.855 125.101C155.423 127.425 155.578 130.426 154.257 132.899L144.527 151.118L145.361 158.924L145.392 159.313C145.615 163.312 142.665 166.826 138.637 167.256L130.751 168.098C126.594 168.542 122.864 165.532 122.42 161.374L121.586 153.567L111.518 141.695L113.868 141.444C113.551 139.504 112.825 137.965 111.689 136.825C110.553 135.686 109.193 134.886 107.609 134.424C107.252 134.314 106.892 134.216 106.53 134.129C106.314 132.797 106.454 131.407 106.974 130.107C108.016 127.504 110.411 125.689 113.199 125.392L122.467 124.402ZM114.003 132.919L128.866 150.449L129.947 160.57L137.833 159.728L136.753 149.607L147.579 129.334L138.311 130.323L132.141 143.768L123.271 131.93L114.003 132.919Z" fill="white"/>
<path d="M76.5731 145.303C75.9907 139.85 77.7987 134.676 82.4587 131.157C82.4685 131.149 82.4784 131.142 82.4883 131.134C86.3734 128.23 91.4435 126.892 96.7142 126.33C98.8065 126.106 100.869 126.014 102.897 126.063C105.221 126.119 107.503 126.483 109.725 127.156L109.726 127.155C109.743 127.16 109.76 127.167 109.777 127.172C109.797 127.178 109.817 127.183 109.836 127.189L109.836 127.189C112.57 128.004 115.017 129.44 117.052 131.48L115.801 132.727L114.004 132.919L121.432 141.681C121.402 142.66 121.181 143.622 120.784 144.515C120.997 144.789 121.201 145.07 121.395 145.36L121.625 145.717C122.908 147.769 123.547 150.005 123.78 152.184L123.822 152.624C124.005 154.827 123.801 157.059 123.103 159.239C122.264 161.862 120.737 164.032 118.881 165.777C118.871 165.786 118.861 165.796 118.85 165.806C118.84 165.815 118.831 165.825 118.821 165.834L118.821 165.834C116.788 167.748 114.324 169.055 111.814 169.975C109.163 170.947 106.185 171.544 103.017 171.882C100.926 172.105 98.9089 172.227 96.9741 172.236L96.1366 172.232C93.7994 172.199 91.5031 171.873 89.2692 171.239L88.8232 171.108C88.8083 171.104 88.7928 171.099 88.7779 171.095C86.0418 170.246 83.6145 168.772 81.6258 166.697L81.2341 166.274C81.0986 166.123 80.9676 165.969 80.84 165.814L85.5021 165.317L78.1631 152.52C78.3091 152.251 78.4703 151.99 78.6493 151.74C77.4131 149.687 76.8031 147.457 76.5731 145.303ZM117.28 131.716C117.522 131.969 117.752 132.23 117.97 132.495L115.801 132.727L117.052 131.48L117.28 131.716ZM84.1315 144.76C84.3002 146.054 84.6758 147.146 85.2588 148.034C85.9049 148.952 86.7207 149.66 87.7056 150.158C88.6907 150.656 89.7581 151.021 90.9068 151.255C92.0796 151.458 93.4092 151.59 94.8956 151.651L102.207 151.98C103.971 152.066 105.257 152.299 106.065 152.678C106.897 153.028 107.369 153.731 107.482 154.788C107.612 156.007 107.154 156.975 106.106 157.689C105.059 158.404 103.573 158.864 101.649 159.07C100.701 159.171 99.787 159.214 98.9082 159.198C98.0537 159.152 97.2433 159.006 96.4769 158.759C95.7349 158.482 95.1138 158.055 94.6138 157.478C94.1136 156.901 93.7993 156.139 93.6709 155.194L84.8092 156.14C85.0649 158.278 85.753 159.973 86.8732 161.224C87.9935 162.474 89.3759 163.354 91.0199 163.864C92.691 164.371 94.4326 164.637 96.2442 164.663C98.083 164.686 100.073 164.583 102.213 164.354C104.978 164.059 107.31 163.564 109.209 162.867C111.108 162.171 112.592 161.313 113.662 160.295C114.758 159.273 115.502 158.152 115.892 156.932C116.258 155.788 116.387 154.561 116.278 153.251L116.253 152.988C116.125 151.794 115.81 150.764 115.309 149.899L115.206 149.729C114.644 148.83 113.909 148.113 113.003 147.579C112.123 147.043 111.108 146.644 109.956 146.383C108.832 146.12 107.538 145.943 106.076 145.853L96.0286 145.322C94.9545 145.272 94.0961 145.063 93.4536 144.693C92.8354 144.293 92.4858 143.713 92.4048 142.954C92.2978 141.952 92.6986 141.087 93.6073 140.36C94.5405 139.602 95.8069 139.137 97.4057 138.967C98.3542 138.865 99.2139 138.829 99.9843 138.856C100.752 138.857 101.49 138.97 102.199 139.195C102.905 139.394 103.52 139.753 104.041 140.273C104.563 140.793 104.925 141.494 105.129 142.377L113.869 141.443C113.552 139.504 112.825 137.964 111.689 136.825C110.554 135.685 109.194 134.885 107.61 134.424C106.023 133.936 104.391 133.671 102.715 133.631C101.039 133.591 99.3065 133.666 97.5181 133.857C92.83 134.358 89.3311 135.472 87.0213 137.198C84.7387 138.922 83.7649 141.355 84.1006 144.499L84.1315 144.76Z" fill="white"/>
<path d="M68.8339 130.13C71.8192 129.811 74.7106 131.286 76.2043 133.89L88.7245 155.722L84.8079 156.14C85.0636 158.278 85.7517 159.973 86.8719 161.224C87.9922 162.475 89.3746 163.355 91.0186 163.865C91.6706 164.062 92.3335 164.222 93.0069 164.347C93.1997 165.839 92.9481 167.378 92.2438 168.758C91.0814 171.036 88.8475 172.573 86.3047 172.845L77.809 173.752C74.8147 174.072 71.9259 172.587 70.4377 169.99L70.2982 169.735L69.6911 168.575L66.6029 168.905L66.2544 170.166C65.427 173.163 62.8521 175.349 59.7613 175.679L51.2656 176.586C48.7227 176.858 46.214 175.828 44.5968 173.846C43.6533 172.691 43.0888 171.302 42.9349 169.863L49.4326 169.169L48.8422 163.641L44.0787 164.149L46.2991 157.169L46.9916 157.096L46.8234 155.52L52.9115 136.378L53.0014 136.112C53.979 133.39 56.43 131.454 59.3223 131.145L68.8339 130.13ZM60.1261 138.673L50.4617 169.059L58.9574 168.152L60.6768 161.924L74.0095 160.5L77.0051 166.224L85.5008 165.317L69.6378 137.657L60.1261 138.673ZM71.331 155.442L62.226 156.414L65.55 144.424L71.331 155.442Z" fill="white"/>
<path d="M45.367 132.635C49.5243 132.191 53.2544 135.202 53.6984 139.359L54.2887 144.887L54.3205 145.275C54.3973 146.651 54.0964 147.969 53.507 149.124C53.7315 149.717 53.8852 150.348 53.9557 151.007L54.52 156.291C54.5202 156.294 54.5197 156.296 54.52 156.299L50.4625 169.058L56.9609 168.364L56.992 168.753C57.2151 172.752 54.2645 176.266 50.2372 176.696L22.9616 179.609C18.8043 180.053 15.0742 177.042 14.6302 172.885L11.5309 143.862C11.0869 139.705 14.0972 135.974 18.2546 135.531L45.367 132.635ZM22.1578 172.081L49.4334 169.168L48.843 163.64L29.453 165.711L28.7411 159.044L46.9924 157.095L46.4281 151.811L28.1768 153.76L27.5343 147.744L46.7612 145.691L46.1708 140.163L19.0585 143.058L22.1578 172.081Z" fill="white"/>
<path d="M180.612 140.483C180.351 138.04 180.41 135.598 180.794 133.176L180.807 133.098C180.908 132.501 181.037 131.913 181.19 131.336L186.096 130.812L185.505 125.284L183.79 125.467C183.882 125.321 183.977 125.177 184.073 125.033L184.262 124.752C186.236 121.883 188.969 119.759 191.979 118.182L191.979 118.181C191.985 118.178 191.991 118.175 191.997 118.172C192.004 118.168 192.011 118.164 192.018 118.161L192.018 118.161C195.464 116.346 199.478 115.356 203.748 114.9L204.551 122.427C200.866 122.821 197.856 123.635 195.521 124.871C193.21 126.077 191.501 127.521 190.392 129.202C189.281 130.855 188.573 132.575 188.27 134.362C187.992 136.118 187.948 137.89 188.139 139.679C188.33 141.467 188.749 143.205 189.395 144.89C190.065 146.545 191.12 148.077 192.558 149.485C193.994 150.867 195.97 151.917 198.486 152.635C201.026 153.323 204.139 153.47 207.824 153.076C211.51 152.683 214.508 151.883 216.818 150.677C219.153 149.441 220.876 147.996 221.988 146.342C223.027 144.767 223.702 143.158 224.011 141.516L224.068 141.187C224.371 139.401 224.427 137.613 224.236 135.824C224.045 134.036 223.614 132.314 222.944 130.659C222.298 128.974 221.257 127.441 219.822 126.059C218.383 124.651 216.393 123.602 213.853 122.914C211.494 122.241 208.622 122.057 205.236 122.36L204.551 122.427L203.748 114.9C208.028 114.443 212.176 114.563 215.931 115.635L215.93 115.635C219.291 116.559 222.498 118.105 225.07 120.604C225.071 120.605 225.072 120.606 225.072 120.606C225.087 120.621 225.103 120.635 225.118 120.65L225.117 120.65C227.214 122.679 228.883 125.068 229.961 127.818L229.961 127.818C230.897 130.13 231.498 132.538 231.763 135.02C232.025 137.476 231.95 139.933 231.544 142.372L231.545 142.372C231.545 142.376 231.543 142.38 231.543 142.384C231.539 142.407 231.536 142.429 231.532 142.451L231.531 142.45C231.055 145.375 229.916 148.071 228.307 150.511C228.295 150.53 228.282 150.548 228.27 150.566C226.272 153.538 223.452 155.731 220.36 157.368C220.347 157.374 220.334 157.381 220.321 157.388C216.896 159.176 212.89 160.149 208.628 160.604C204.362 161.06 200.241 160.953 196.506 159.942C196.473 159.933 196.441 159.923 196.408 159.914C193.166 158.989 190.072 157.504 187.551 155.169L187.309 154.94L187.262 154.895C185.304 152.978 183.698 150.763 182.593 148.239L182.378 147.731L182.326 147.599C181.447 145.304 180.873 142.926 180.612 140.483ZM208.334 137.522C208.293 137.139 208.206 136.778 208.069 136.424L208.007 136.273C208 136.258 207.994 136.242 207.987 136.227C207.928 136.087 207.855 135.963 207.749 135.838L207.631 135.713C207.606 135.689 207.582 135.665 207.558 135.64C207.557 135.64 207.556 135.639 207.556 135.639C207.529 135.623 207.442 135.575 207.268 135.517C207.209 135.498 206.83 135.389 205.946 135.483C205.06 135.578 204.712 135.765 204.659 135.796C204.493 135.895 204.401 135.97 204.359 136.01C204.344 136.023 204.335 136.035 204.327 136.044C204.219 136.23 204.149 136.418 204.106 136.642C204.103 136.658 204.1 136.675 204.097 136.691C204.012 137.121 203.994 137.543 204.041 137.981C204.086 138.41 204.193 138.838 204.379 139.285C204.459 139.468 204.567 139.637 204.729 139.814C204.739 139.82 204.751 139.831 204.768 139.841C204.818 139.87 204.923 139.925 205.107 139.986C205.164 140.005 205.544 140.116 206.43 140.021C207.315 139.926 207.663 139.739 207.716 139.707C207.874 139.614 207.948 139.549 207.971 139.528C207.972 139.526 207.973 139.525 207.974 139.524C207.992 139.496 208.011 139.468 208.029 139.44C208.18 139.213 208.244 139.035 208.278 138.87C208.365 138.393 208.38 137.951 208.334 137.522ZM215.862 136.718C215.989 137.911 215.939 139.109 215.711 140.312C215.48 141.487 215.023 142.592 214.338 143.624C213.681 144.653 212.759 145.519 211.573 146.221C210.388 146.923 208.941 147.366 207.234 147.548C205.527 147.731 204.019 147.603 202.712 147.167C201.404 146.731 200.307 146.082 199.42 145.217C198.56 144.35 197.893 143.365 197.419 142.265C196.943 141.137 196.64 139.977 196.513 138.785C196.402 137.741 196.428 136.704 196.59 135.674L196.668 135.233C196.896 134.03 197.339 132.914 197.996 131.884C198.681 130.852 199.616 129.984 200.802 129.282C201.987 128.58 203.434 128.138 205.142 127.955L205.459 127.925C207.036 127.791 208.438 127.927 209.663 128.336C210.971 128.772 212.054 129.424 212.915 130.291C213.802 131.156 214.483 132.152 214.96 133.279C215.434 134.38 215.735 135.526 215.862 136.718Z" fill="white"/>
<circle cx="206.197" cy="137.963" r="3.78517" transform="rotate(-6.09544 206.197 137.963)" fill="white"/>
</g>
<defs>
<filter id="filter0_d_1_1055" x="9.2318" y="8.45302" width="341.808" height="174.019" filterUnits="userSpaceOnUse" color-interpolation-filters="sRGB">
<feFlood flood-opacity="0" result="BackgroundImageFix"/>
<feColorMatrix in="SourceAlpha" type="matrix" values="0 0 0 0 0 0 0 0 0 0 0 0 0 0 0 0 0 0 127 0" result="hardAlpha"/>
<feOffset dy="0.563907"/>
<feGaussianBlur stdDeviation="1.12781"/>
<feComposite in2="hardAlpha" operator="out"/>
<feColorMatrix type="matrix" values="0 0 0 0 0 0 0 0 0 0 0 0 0 0 0 0 0 0 0.4 0"/>
<feBlend mode="normal" in2="BackgroundImageFix" result="effect1_dropShadow_1_1055"/>
<feBlend mode="normal" in="SourceGraphic" in2="effect1_dropShadow_1_1055" result="shape"/>
</filter>
</defs>
</svg>
